<svg width="213" height="197" viewBox="0 0 213 197" fill="none" xmlns="http://www.w3.org/2000/svg">
<path d="M17.6998 144.244C17.6998 144.244 35.7627 131.953 65.5268 133.029C95.2649 134.096 135.952 171.897 181.688 125.285C206.809 99.6737 197.82 80.3953 184.596 68.213C177.733 61.8828 169.714 57.4313 164.75 55.0348C162.147 53.7632 159.06 54.4675 157.143 56.6584C152.846 61.5796 147.385 65.1634 140.855 67.4736C142.139 47.4244 135.533 33.2585 122.943 26.7893C117.025 23.692 109.788 22.3552 101.413 22.9325C95.759 23.3213 90.235 24.7302 84.9475 26.7852C72.363 31.6377 45.0374 43.6234 30.4162 61.1176C30.1984 61.392 29.9546 61.657 29.7178 61.9835C11.2019 85.7243 17.6998 144.244 17.6998 144.244Z" fill="url(#paint0_linear_470_993)"/>
<path opacity="0.2" d="M17.6995 144.245C17.6995 144.245 35.7625 131.953 65.5266 133.03C95.2647 134.096 135.951 171.898 181.687 125.285C206.809 99.6741 197.819 80.3957 184.596 68.2134C185.005 77.6183 181.862 95.4874 154.641 104.269C116.706 116.49 98.048 101.18 67.6454 106.475C47.5616 109.983 40.5437 113.472 38.0629 115.428C41.8057 111.219 54.0065 99.5652 82.6618 88.6235C118.385 74.9481 133.221 74.2756 140.881 67.4835C142.165 47.4342 135.559 33.2683 122.969 26.7991C128.106 36.009 132.449 51.2084 112.21 59.76C87.3152 70.3312 51.3291 70.2331 33.8283 86.0011C28.9334 81.0654 28.432 71.8332 29.7531 61.9673C11.2016 85.7246 17.6995 144.245 17.6995 144.245Z" fill="#5C001A"/>
<path d="M176.343 69.7492C177.296 74.3407 161.35 81.625 152.893 84.8553C123.424 96.0902 93.445 92.9314 93.2068 90.1033C93.0087 87.7319 109.525 86.1677 136.912 75.1476C144.86 71.9385 150.842 66.2747 162.072 65.7928C167.818 65.5555 175.708 66.7175 176.343 69.7492Z" fill="#74A04B"/>
<path d="M114.256 28.4616C112.833 25.0841 92.9642 28.0814 90.73 28.7126C71.3698 34.2826 45.9983 48.5124 47.2632 52.5691C48.5517 56.7228 76.8686 54.0001 99.8141 40.6854C105.457 37.4922 115.292 30.961 114.256 28.4616Z" fill="#74A04B"/>
<path opacity="0.3" d="M140.856 67.473C140.856 67.473 94.6657 72.9758 77.4793 82.0489C60.293 91.1221 38.0471 115.392 38.0471 115.392C51.1226 98.6616 93.0961 82.9576 140.856 67.473Z" fill="#5C001A"/>
<defs>
<linearGradient id="paint0_linear_470_993" x1="79.7474" y1="167.747" x2="131.922" y2="29.9551" gradientUnits="userSpaceOnUse">
<stop stop-color="#266B22"/>
<stop offset="0.2149" stop-color="#2B7021"/>
<stop offset="0.4827" stop-color="#3B7E1D"/>
<stop offset="0.7773" stop-color="#549517"/>
<stop offset="1" stop-color="#6CAB12"/>
</linearGradient>
</defs>
</svg>
