<svg width="821" height="1282" viewBox="0 0 821 1282" fill="none" xmlns="http://www.w3.org/2000/svg">
<mask id="mask0_470_1005" style="mask-type:alpha" maskUnits="userSpaceOnUse" x="0" y="0" width="821" height="1282">
<rect width="821" height="1282" fill="#D9D9D9"/>
</mask>
<g mask="url(#mask0_470_1005)">
<path d="M331.772 660.522C332.464 659.719 333.157 658.888 333.905 658.085C371.826 614.54 419.886 593.239 447.447 616.451C475.48 640.024 457.835 662.6 461.131 658.223C466.449 650.993 475.341 642.379 489.579 646.478C509.44 652.184 526.697 682.599 497.418 707.778C497.418 707.834 497.363 707.806 497.363 707.862C496.393 708.665 495.451 709.468 494.399 710.271C490.604 713.152 486.172 715.978 481.02 718.665C430.245 745.09 396.147 743.29 364.762 774.092C333.406 804.923 331.356 828.218 331.356 828.218C331.356 828.218 293.49 705.701 331.772 660.522Z" fill="url(#paint0_linear_470_1005)"/>
<path d="M555.641 697.335C555.641 697.335 571.403 702.571 581.458 718.221C591.513 733.872 596.36 746.697 605.917 749.356C615.446 752.043 635.251 756.087 635.251 756.087L629.878 793.787C629.878 793.787 610.21 792.624 603.59 797.471C596.998 802.319 594.671 816.861 578.078 822.457C561.486 828.052 547.664 835.753 547.664 835.753C547.664 835.753 518.523 820.933 487.001 840.406C455.478 859.852 443.844 887.358 443.844 887.358C443.844 887.358 400.272 885.53 406.671 909.933C413.097 934.309 422.127 935.307 423.54 957.522C424.953 979.737 414.316 1003.28 413.734 1013.67C413.152 1024.06 413.208 1034.25 413.208 1034.25C413.208 1034.25 406.061 1029.79 398.194 1032.81C390.328 1035.86 385.148 1038.1 385.148 1038.1C385.148 1038.1 321.077 1038.63 327.088 1086.49C333.099 1134.36 401.463 1173.42 401.463 1173.42C401.463 1173.42 422.016 1126.52 428 1114.55C433.983 1102.59 453.594 1087.35 449.356 1070.34C445.118 1053.34 423.457 1039.26 423.457 1039.26L435.34 1005.14C435.34 1005.14 492.735 999.266 504.009 975.527C515.282 951.788 500.657 934.199 499.992 921.983C499.327 909.767 502.679 893.95 502.679 893.95C502.679 893.95 497.554 898.244 487.638 896.776C477.721 895.308 455.727 890.46 455.727 890.46C455.727 890.46 480.713 843.73 521.93 849.907C563.148 856.084 561.154 861.763 568.771 877.774C576.389 893.784 578.051 926.858 599.712 928.548C621.374 930.237 632.481 923.312 648.824 924.365C665.167 925.418 671.012 935.362 671.012 935.362C671.012 935.362 675.86 899.657 654.226 873.148C632.592 846.639 616.249 833.204 606.997 831.542C597.745 829.88 570.655 831.985 570.655 831.985C570.655 831.985 594.698 823.121 602.039 815.864C609.407 808.607 604.227 804.645 611.9 803.482C619.601 802.319 631.761 808.967 631.761 808.967C631.761 808.967 643.451 831.431 653.118 839.547C662.785 847.664 676.247 858.688 676.247 858.688C676.247 858.688 684.724 824.091 679.738 805.864C674.752 787.61 645.251 764.148 645.251 764.148C645.251 764.148 648.409 735.118 621.013 715.063C593.618 694.953 555.641 697.335 555.641 697.335Z" fill="url(#paint1_linear_470_1005)"/>
<path d="M156.373 1182.31C156.373 1182.31 182.827 1180.95 213.519 1206.1C217.701 1209.54 221.552 1213.11 225.097 1216.71C198.865 1183.33 169.725 1154.44 138.895 1128.18C138.895 1128.18 204.959 1162.03 223.657 1188.93C242.354 1215.83 258.31 1264.05 258.31 1264.05C258.31 1264.05 233.49 1253.86 214.71 1247.85C195.929 1241.84 180.528 1224.19 180.528 1224.19C180.528 1224.19 212.161 1222.86 227.064 1232.36C222.41 1228.12 218.034 1224.5 214.599 1222.31C200.583 1213.3 156.373 1182.31 156.373 1182.31Z" fill="url(#paint2_linear_470_1005)"/>
<path d="M279.61 1144.72C286.313 1142.7 304.18 1144.17 304.18 1144.17C304.18 1144.17 284.069 1147.85 277.172 1157.02C270.275 1166.16 262.297 1192.14 259.389 1208.35C256.48 1224.55 258.253 1264.08 258.253 1264.08C258.253 1264.08 246.979 1219.62 252.436 1194.66C257.893 1169.65 272.934 1146.74 279.61 1144.72Z" fill="url(#paint3_linear_470_1005)"/>
<path d="M327.976 522.438C326.979 521.663 326.009 520.721 325.123 519.834C324.264 519.53 323.461 519.059 322.602 518.532C321.605 517.757 320.996 516.926 320.469 516.123C319.527 514.516 318.863 512.965 318.281 511.33C314.458 498.561 315.151 485.569 316.84 473.021C318.558 460.39 321.993 448.119 326.757 436.346C336.175 412.801 350.219 391.5 366.562 372.442C350.912 392.137 337.726 413.854 329.278 437.316C325.178 449.088 321.91 461.193 320.442 473.492C319.444 482.19 319.14 491.276 320.275 499.835C321.411 495.708 323.461 491.94 325.732 488.672C329.638 483.27 334.236 478.478 339.638 474.6C345.095 470.75 351.133 467.786 357.947 466.456C361.382 465.985 364.983 465.792 368.833 467.232C370.856 467.869 372.49 469.42 373.653 471.304L373.709 471.359C374.9 473.187 375.592 475.21 375.426 477.204C375.121 480.611 374.096 483.492 372.85 486.096C373.044 486.373 373.349 486.539 373.542 486.705C376.119 489.392 377.808 493.325 377.919 497.065C378.085 504.682 374.152 511.026 369.72 515.984C365.066 520.97 359.388 524.931 352.74 526.953C349.36 528.034 345.759 528.449 342.103 527.95C339.222 527.563 336.48 526.732 333.904 525.624C334.984 529.889 337.865 533.629 341.826 535.734C343.793 536.676 346.203 536.981 348.64 537.091C348.723 535.845 348.945 534.571 349.443 533.352C351.105 529.779 354.734 528.034 357.809 527.175C361.133 526.288 364.457 526.039 367.753 526.122C369.443 526.233 371.05 526.427 372.739 526.787C373.598 526.953 374.429 527.258 375.371 527.618C376.008 528.172 377.393 528.255 377.891 530.471C377.947 530.527 378.03 530.693 378.03 530.942C377.67 533.407 376.534 533.546 375.897 534.321C375.094 534.848 374.346 535.319 373.681 535.734C372.13 536.51 370.634 537.202 369.055 537.729C366.036 538.892 362.933 539.778 359.776 540.471C357.116 540.942 354.429 541.385 351.77 541.634C351.798 542.105 351.881 542.521 351.992 542.936C353.543 548.725 356.839 554.266 361.299 558.365C363.515 560.304 366.257 561.994 369.166 561.966C372.074 561.828 374.734 559.916 376.728 557.617C378.612 555.457 380.634 552.105 378.889 549.473C376.811 547.23 373.238 547.119 370.191 547.036C373.238 547.008 376.783 546.87 379.221 549.196C381.326 552.133 379.193 555.761 377.421 558.199C375.454 560.609 372.684 562.88 369.249 563.24C365.759 563.434 362.656 561.634 360.136 559.667C355.205 555.484 351.41 549.972 349.471 543.629C349.305 543.047 349.083 542.41 348.973 541.745C345.981 541.717 342.879 541.33 339.665 540.028C333.322 536.953 328.668 530.25 328.004 523.214C327.948 522.854 328.059 522.604 327.976 522.438ZM373.653 530.942C373.099 530.693 372.49 530.499 371.825 530.36C370.496 529.973 368.972 529.779 367.559 529.64C364.512 529.446 361.493 529.585 358.723 530.333C355.925 530.997 353.266 532.382 352.241 534.598C351.826 535.346 351.687 536.122 351.521 536.981C354.014 536.814 356.479 536.51 358.834 536.094C361.77 535.54 364.817 534.709 367.67 533.74C369.055 533.297 370.468 532.715 371.77 532.078C372.407 531.745 373.044 531.385 373.543 531.053C373.598 530.997 373.598 530.997 373.653 530.942ZM369.775 491.192C368.695 492.688 367.67 494.129 366.562 495.541C362.573 500.638 357.947 505.209 352.934 509.308C347.865 513.352 342.463 517.147 336.009 519.308C335.843 519.391 335.538 519.447 335.316 519.474C340.247 521.856 346.147 522.632 350.856 521.053C356.285 519.419 361.354 516.012 365.288 511.884C369.166 507.674 372.241 502.328 372.13 497.231C372.074 495.098 371.105 493.021 369.775 491.192ZM334.458 514.71C339.859 512.715 344.956 509.142 349.582 505.236C354.236 501.275 358.584 496.926 362.296 492.134C363.377 490.749 364.485 489.253 365.454 487.73C364.595 487.314 363.792 486.954 362.878 486.733C358.003 485.819 352.324 488.367 347.948 492.023C343.433 495.68 339.748 500.583 337.2 505.818C335.732 508.782 334.652 511.829 333.904 514.876C333.876 514.876 334.098 514.848 334.458 514.71ZM328.558 514.488L328.558 514.377C328.668 514.239 328.696 513.962 328.862 513.519C329.61 509.945 330.884 506.594 332.325 503.519C335.178 497.536 339.25 492.079 344.43 487.785C349.499 483.603 356.258 479.919 363.931 481.22C365.316 481.414 366.534 481.941 367.726 482.633C367.919 482.689 368.086 482.716 368.224 482.827C369.11 480.916 369.748 479.032 369.858 477.232C369.831 474.96 368.806 473.326 366.673 472.578C364.54 471.719 361.742 471.747 358.972 472.218C353.321 473.215 347.92 475.985 343.156 479.42C338.336 482.91 334.181 487.314 330.774 492.134C327.367 496.954 324.957 502.439 325.566 507.619C325.732 510.139 326.84 512.438 328.558 514.488Z" fill="url(#paint4_linear_470_1005)"/>
<path d="M320.248 499.807C321.384 495.679 323.434 491.912 325.705 488.644C329.611 483.242 334.209 478.45 339.61 474.572C345.067 470.722 351.106 467.758 357.92 466.428C361.355 465.957 364.956 465.763 368.806 467.204C370.828 467.841 372.463 469.392 373.626 471.276C370.191 468.312 362.546 464.683 348.253 471.387C327.505 481.192 320.248 499.807 320.248 499.807Z" fill="url(#paint5_linear_470_1005)"/>
<path d="M328.836 513.491C329.584 509.918 330.858 506.566 332.299 503.491C335.152 497.508 339.224 492.051 344.404 487.758C349.473 483.575 356.231 479.891 363.904 481.193C365.289 481.387 366.508 481.913 367.699 482.605C365.511 482.051 355.982 480.223 345.65 489.032C334.404 498.644 329.972 510.139 328.836 513.491Z" fill="url(#paint6_linear_470_1005)"/>
<path d="M334.457 514.71C339.858 512.716 344.955 509.143 349.581 505.237C354.235 501.276 358.584 496.927 362.295 492.135C363.376 490.75 364.484 489.254 365.453 487.73C365.453 487.73 363.265 494.628 354.373 503.575C346.617 511.359 336.977 514.129 334.457 514.71Z" fill="url(#paint7_linear_470_1005)"/>
<path d="M335.318 519.475C340.248 521.857 346.148 522.633 350.857 521.054C356.287 519.42 361.356 516.013 365.289 511.885C369.167 507.675 372.242 502.329 372.131 497.232C372.103 495.099 371.106 493.022 369.804 491.193C369.804 491.193 380.94 498.755 365.234 515.154C349.528 531.691 335.318 519.475 335.318 519.475Z" fill="url(#paint8_linear_470_1005)"/>
<path d="M351.52 536.98C354.013 536.814 356.478 536.509 358.833 536.094C361.769 535.54 364.816 534.709 367.669 533.739C369.054 533.296 370.467 532.715 371.769 532.077C372.406 531.745 373.043 531.385 373.542 531.053C373.597 530.997 373.597 530.997 373.652 530.914C373.652 530.914 373.071 534.404 363.763 536.925C354.539 539.501 351.52 536.98 351.52 536.98Z" fill="url(#paint9_linear_470_1005)"/>
<path d="M333.848 525.541C334.928 529.807 337.809 533.546 341.77 535.652C343.736 536.593 346.146 536.898 348.584 537.009C348.584 537.009 342.961 539.003 338.196 536.012C333.432 532.965 333.848 525.541 333.848 525.541Z" fill="url(#paint10_linear_470_1005)"/>
<path d="M348.586 537.009C348.669 535.762 348.89 534.488 349.389 533.269C351.051 529.696 354.68 527.951 357.754 527.092C361.078 526.206 364.402 525.956 367.699 526.039C369.388 526.15 370.995 526.344 372.685 526.704C373.543 526.87 374.374 527.175 375.316 527.535C375.953 528.089 377.338 528.172 377.837 530.388C376.286 528.699 372.629 526.649 364.873 527.369C352.713 528.56 348.586 537.009 348.586 537.009Z" fill="url(#paint11_linear_470_1005)"/>
<path d="M476.449 128.654C476.449 128.654 466.671 155.329 468.527 189.4C470.383 223.471 486.643 277.431 486.643 277.431C486.643 277.431 473.79 215.023 478.139 173.639C482.488 132.255 487.834 123.724 487.834 123.724L476.449 128.654Z" fill="url(#paint12_linear_470_1005)"/>
<path d="M483.096 200.038C483.096 200.038 472.93 181.645 497.805 182.088C522.68 182.503 547.665 222.807 547.665 222.807C547.665 222.807 483.262 232.308 476.282 217.932C469.302 203.528 483.096 200.038 483.096 200.038Z" fill="url(#paint13_linear_470_1005)"/>
<path d="M476.366 218.237C483.319 232.641 547.749 223.14 547.749 223.14C547.749 223.14 546.946 221.866 545.505 219.788C532.32 221.478 483.402 226.962 477.363 214.497C475.784 211.173 475.258 208.487 475.48 206.271C474.039 208.957 473.762 212.835 476.366 218.237Z" fill="#74A04B"/>
<path d="M505.256 202.448C519.051 206.049 533.482 214.553 533.482 214.553L484.426 200.62C484.426 200.62 491.461 198.847 505.256 202.448Z" fill="#74A04B"/>
<path d="M62.2224 277.209C62.2778 277.237 62.3055 277.293 62.3055 277.32C62.3332 277.32 62.3332 277.32 62.3332 277.32C62.3332 277.32 57.5134 265.603 60.6989 253.332C63.8844 241.089 77.6513 217.35 86.9031 207.738C96.1272 198.153 93.0249 191.672 102.083 182.891C111.113 174.082 131.279 183.029 142.276 191.118C153.272 199.206 158.674 195.107 153.522 193.167C146.652 190.536 139.949 185.439 133.882 182.06C125.932 177.655 107.457 169.65 107.457 169.65C107.457 169.65 111.778 160.509 88.8144 153.252C82.0002 151.091 78.0391 150.593 75.4076 151.617C70.0061 153.695 70.2831 162.116 62.7209 175.384C61.6129 177.378 60.2557 179.484 58.7599 181.7C42.029 205.743 25.7137 219.843 26.6832 235.576C27.5696 250.701 59.8402 275.409 62.2224 277.209Z" fill="url(#paint14_linear_470_1005)"/>
<path opacity="0.3" d="M62.0839 276.932C62.0839 276.96 62.0838 276.96 62.1115 276.988C62.2777 277.209 62.3332 277.32 62.3332 277.32C62.3332 277.32 57.5134 265.603 60.6989 253.332C63.8844 241.089 77.6513 217.35 86.9031 207.738C96.1272 198.153 93.0249 191.672 102.083 182.891C111.113 174.082 131.279 183.029 142.276 191.118C153.272 199.206 158.674 195.107 153.522 193.167C146.652 190.536 139.949 185.439 133.882 182.06C125.932 177.655 107.457 169.65 107.457 169.65C107.457 169.65 111.778 160.509 88.8144 153.252C82.0002 151.091 78.0391 150.593 75.4076 151.617C81.4185 153.612 92 157.85 94.2991 163.196C95.1855 165.246 95.7948 166.908 96.3211 168.237C89.0914 168.875 78.6762 172.254 66.1003 183.334C41.1149 205.328 43.5526 228.07 45.824 242.058C47.9015 254.966 60.1726 273.996 62.0839 276.932Z" fill="#5C001A"/>
<path d="M62.2227 277.21C59.5912 274.883 18.3182 237.488 46.683 202.669C55.5193 191.81 60.2283 182.365 62.749 175.356C61.641 177.351 60.2837 179.456 58.7879 181.672C42.0571 205.716 25.7417 219.815 26.7112 235.549C27.5699 250.701 59.8405 275.409 62.2227 277.21Z" fill="#74A04B"/>
<path d="M62.0847 276.933C60.6443 273.803 46.7388 242.529 51.8356 215.106C57.2094 186.243 96.3496 168.21 96.3496 168.21C89.1199 168.847 78.7047 172.226 66.1288 183.306C41.1434 205.3 43.581 228.042 45.8524 242.031C47.9022 254.966 60.1734 273.996 62.0847 276.933Z" fill="#74A04B"/>
<path d="M362.74 86.9926C383.543 94.9979 396.7 109.263 399.553 126.576C404.539 156.741 379.554 189.787 365.067 220.922C356.424 239.509 348.973 258.594 346.785 276.932C344.901 292.61 347.671 307.623 354.818 321.03C372.49 354.27 417.531 375.572 473.595 376.624C476.559 376.68 476.393 377.483 473.457 378.425C469.745 379.616 464.731 380.308 461.075 380.225C413.015 379.311 371.936 365.156 348.945 339.977C338.585 328.648 332.021 315.379 329.666 301.059C326.979 284.743 330.58 267.458 336.702 250.035C343.35 231.116 353.1 212.529 362.878 193.721C371.078 177.932 379.692 161.977 382.047 146.243C385.038 126.244 377.698 107.878 358.336 96.1613C350.496 91.4523 348.557 81.5357 362.74 86.9926Z" fill="url(#paint15_linear_470_1005)"/>
<g opacity="0.3">
<path d="M354.9 320.975C347.754 307.568 344.928 292.554 346.867 276.848C349 258.566 356.507 239.453 365.094 220.867C379.636 189.732 404.594 156.686 399.58 126.52C397.503 113.972 390.135 103.031 378.168 94.8867C387.088 102.504 392.739 111.95 394.484 122.614C399.47 152.78 374.54 185.826 360.052 216.989C351.41 235.548 343.903 254.633 341.77 272.915C339.831 288.621 342.657 303.662 349.803 317.041C355.454 327.678 363.875 337.124 374.706 344.99C366.368 337.982 359.609 329.922 354.9 320.975Z" fill="#5C001A"/>
</g>
<path d="M161.776 781.572C161.859 781.655 161.887 781.766 161.915 781.821C161.998 781.849 161.998 781.849 161.998 781.849C161.998 781.849 157.981 755.395 170.668 731.739C183.327 708.167 223.52 666.367 247.342 651.271C271.108 636.174 267.978 621.355 290.942 607.837C313.905 594.292 350.857 622.767 369.388 644.872C387.947 667.004 416.783 684.04 416.783 684.04L449.524 685.425C449.524 685.425 401.077 661.326 391.465 654.733C378.668 645.897 367.449 632.074 356.702 622.102C342.575 609.056 308.614 583.378 308.614 583.378C308.614 583.378 322.077 566.785 278.532 540.36C265.624 532.493 257.729 529.501 251.829 530.277C239.724 531.828 236.068 549.307 213.852 572.713C210.556 576.259 206.761 579.915 202.523 583.682C156.153 624.679 115.573 645.481 109.645 678.25C103.911 709.773 157.815 776.696 161.776 781.572Z" fill="url(#paint16_linear_470_1005)"/>
<path opacity="0.3" d="M161.666 780.962C161.693 781.018 161.693 781.018 161.693 781.073C161.915 781.599 161.998 781.849 161.998 781.849C161.998 781.849 157.981 755.395 170.668 731.739C183.327 708.167 223.52 666.367 247.342 651.271C271.108 636.174 267.978 621.355 290.942 607.837C313.905 594.292 350.857 622.767 369.388 644.872C387.947 667.004 416.783 684.04 416.783 684.04L449.524 685.425C449.524 685.425 401.077 661.326 391.465 654.733C378.668 645.897 367.449 632.074 356.702 622.102C342.575 609.056 308.614 583.378 308.614 583.378C308.614 583.378 322.077 566.785 278.532 540.36C265.624 532.493 257.729 529.501 251.829 530.277C263.186 537.396 282.77 551.384 284.848 563.517C285.623 568.17 286.094 571.882 286.482 574.902C271.33 572.575 248.256 574.292 216.844 590.746C154.491 623.404 148.12 671.325 145.766 701.186C143.55 728.748 159.2 773.954 161.666 780.962Z" fill="#5C001A"/>
<path d="M161.776 781.572C157.566 775.506 91.5565 677.974 167.233 620.69C190.806 602.824 205.237 585.76 213.88 572.658C210.584 576.204 206.789 579.86 202.551 583.627C156.181 624.624 115.6 645.426 109.672 678.195C103.911 709.773 157.815 776.697 161.776 781.572Z" fill="#74A04B"/>
<path d="M161.666 780.962C160.281 773.816 147.4 702.654 171.582 648.861C197.066 592.242 286.51 574.874 286.51 574.874C271.358 572.547 248.284 574.264 216.872 590.718C154.519 623.377 148.148 671.298 145.794 701.158C143.55 728.748 159.2 773.954 161.666 780.962Z" fill="#74A04B"/>
<path d="M-1037.83 243.914C-1037.11 245.161 -1036.31 246.296 -1035.53 247.487C-1035.5 247.543 -1035.5 247.543 -1035.45 247.57C-1035.12 248.097 -1034.7 248.678 -1034.31 249.205C-1030.68 254.468 -1026.75 259.454 -1022.4 264.163C-1021.46 265.16 -1020.49 266.213 -1019.52 267.182C-1018.75 268.041 -1017.86 268.844 -1017.03 269.647C-1014.81 271.78 -1012.57 273.775 -1010.19 275.686C-1009.11 276.572 -1007.97 277.459 -1006.83 278.29C-1006.09 278.872 -1005.39 279.37 -1004.65 279.896C-1004.06 280.312 -1003.46 280.755 -1002.82 281.143C-1001.71 281.919 -1000.55 282.666 -999.328 283.414C-994.674 286.323 -989.688 288.954 -984.37 291.087C-903.237 324.05 -812.352 310.533 -738.781 255.742C-705.292 230.729 -608.397 121.674 -518.039 42.8394C-518.012 42.7563 -517.956 42.7009 -517.901 42.6732C-473.553 4.0316 -430.812 -27.3803 -397.794 -37.9617C-397.794 -37.9617 -366.825 -51.9502 -315.358 -68.958L-315.192 -69.0134C-239.322 -93.9712 -119.187 -125.3 11.5022 -127.544C230.914 -131.339 380.439 197.627 380.439 197.627C380.439 197.627 424.233 292.001 456.642 427.427C456.642 427.427 456.67 427.482 456.67 427.538C468.969 479.004 479.661 536.371 485.561 596.785C488.414 625.011 490.215 653.819 490.63 683.07C491.544 736.587 487.915 791.322 477.971 845.476C477.916 845.836 477.833 846.224 477.777 846.584C478.054 845.919 478.304 845.254 478.581 844.589L478.608 844.506L487.223 831.349C487.223 831.349 494.009 858.966 483.428 899.269C473.096 938.326 428.056 1009.82 425.175 1014.22C425.092 1014.36 425.064 1014.45 425.064 1014.45C316.092 1258.54 126.485 1311.83 29.4243 1316.49C-79.7693 1321.64 -58.2741 1283.52 -112.622 1309.15C-146 1324.85 -156.249 1336.1 -156.304 1345.18C-156.249 1350.95 -152.233 1355.79 -147.302 1360.42C-146.332 1361.31 -145.335 1362.16 -144.31 1362.97C-142.399 1364.49 -140.405 1365.88 -138.438 1367.21C-136.61 1368.45 -134.865 1369.62 -133.175 1370.75C-132.649 1371.11 -132.122 1371.56 -131.541 1371.89C-130.71 1372.52 -129.879 1373.19 -129.103 1373.83C-128.244 1374.55 -127.441 1375.29 -126.776 1376.1C-126.444 1376.4 -126.167 1376.74 -125.945 1377.07C-125.613 1377.43 -125.364 1377.82 -125.142 1378.23C-124.865 1378.62 -124.671 1379.03 -124.477 1379.42C-123.923 1380.7 -123.563 1382.05 -123.591 1383.52C-123.591 1384.52 -123.729 1385.54 -124.006 1386.62C-124.311 1387.76 -124.754 1388.95 -125.391 1390.2C-126.056 1391.44 -126.887 1392.8 -127.857 1394.21C-128.577 1395.29 -129.435 1396.32 -130.35 1397.34C-144.698 1413.55 -175.888 1421.61 -202.979 1447.12C-211.095 1454.82 -216.912 1460.28 -221.067 1464.21C-231.732 1474.24 -231.732 1474.24 -231.732 1474.24C-231.732 1474.24 -71.6809 1440.56 -2.48615 1425.02C25.2416 1418.81 81.2511 1405.1 141.582 1389.2L141.859 1389.12C232.078 1365.38 331.909 1336.71 361.797 1320.61C411.768 1293.69 499.993 1253.89 499.993 1253.89C499.993 1253.89 490.658 1226.21 495.505 1169.18C496.198 1161.23 497.167 1152.64 498.441 1143.53C509.023 1069.15 584.644 886.721 590.71 749.024C591.237 736.864 591.403 724.399 591.209 711.768C591.181 708.167 591.07 704.593 590.987 700.937C590.876 696.09 590.683 691.187 590.433 686.311C590.295 683.375 590.184 680.439 589.99 677.475C589.685 671.852 589.298 666.257 588.882 660.633C588.577 656.34 588.217 652.046 587.857 647.781C587.885 647.254 587.829 646.673 587.719 646.202C587.691 645.675 587.691 645.343 587.636 645.121C587.608 645.011 587.636 644.955 587.608 644.844C587.636 644.761 587.636 644.734 587.636 644.734C582.373 584.902 572.373 525.984 563.869 480.472C556.695 442.135 550.628 413.327 549.326 401.416C549.049 398.979 548.828 396.68 548.662 394.325C547.249 378.425 547.11 364.797 545.725 353.606C545.67 353.44 545.725 353.385 545.67 353.274C545.698 353.191 545.67 353.108 545.67 353.052C545.642 352.997 545.642 352.941 545.642 352.941C544.34 342.803 541.986 334.632 536.723 328.704C524.701 315.131 509.383 307.929 499.993 285.686C499.549 284.605 498.885 282.999 498.109 280.838C486.475 249.315 438.388 108.073 358.639 -7.38089C333.044 -44.4158 304.153 -78.8193 272.16 -106.076C249.501 -125.411 228.089 -141.338 207.674 -154.579C181.913 -171.227 157.675 -183.442 134.297 -192.196C134.213 -192.223 134.213 -192.223 134.213 -192.223C127.787 -191.752 121.527 -191.254 115.322 -190.727C111.97 -190.423 108.508 -190.146 104.99 -189.841C101.417 -189.509 97.7878 -189.176 94.0483 -188.816C89.7271 -189.259 84.0763 -189.841 77.3452 -190.478C74.8245 -190.7 72.0545 -190.977 69.2568 -191.254C69.0906 -191.254 68.8967 -191.309 68.6474 -191.309C66.7915 -191.503 64.7971 -191.669 62.8304 -191.835C55.0744 -192.583 46.4874 -193.331 37.3464 -194.051C35.7952 -194.162 34.2439 -194.273 32.6927 -194.439C30.2551 -194.633 27.7344 -194.799 25.2414 -194.993C21.1141 -195.326 16.9037 -195.63 12.6102 -195.963C12.444 -195.963 12.1947 -195.963 12.0008 -196.018C9.42467 -196.24 6.87633 -196.406 4.27253 -196.544C1.25322 -196.738 -1.79378 -196.988 -4.89618 -197.154C-9.27279 -197.403 -13.788 -197.68 -18.3031 -197.957C-27.3333 -198.511 -36.4466 -198.954 -45.4491 -199.342C-45.5599 -199.37 -45.7261 -199.314 -45.8646 -199.398C-51.7093 -199.619 -57.5263 -199.841 -63.2879 -199.979C-66.418 -200.09 -69.5205 -200.145 -72.5675 -200.229C-78.2737 -200.367 -83.869 -200.422 -89.4091 -200.395C-89.5199 -200.422 -89.6307 -200.395 -89.7138 -200.422C-97.9961 -200.478 -106.001 -200.339 -113.563 -200.062C-116.167 -199.979 -118.688 -199.868 -121.153 -199.758C-125.447 -199.508 -129.574 -199.259 -133.397 -198.871C-138.272 -198.456 -142.842 -197.957 -146.97 -197.292C-173.866 -192.168 -200.902 -185.658 -227.106 -178.456C-295.331 -159.703 -358.293 -135.992 -399.705 -117.433C-452.64 -93.7496 -528.122 -36.2166 -598.453 28.9894C-622.496 51.2602 -645.931 74.4728 -667.675 97.4916C-668.949 98.8766 -670.251 100.178 -671.47 101.536C-684.96 115.968 -697.065 129.873 -708.283 142.92C-708.283 142.92 -708.283 142.92 -708.311 143.003C-766.37 210.646 -800.691 257.986 -881.381 259.731C-884.262 259.842 -887.226 259.869 -890.273 259.786C-993.705 257.958 -1033.18 172.42 -1043.2 159.429C-1067.05 128.405 -1074.34 127.269 -1074.34 127.269C-1074.34 127.269 -1074.26 128.294 -1074.09 130.233C-1072.82 143.612 -1065.89 200.093 -1037.83 243.914Z" fill="url(#paint17_linear_470_1005)"/>
<path d="M-1037.83 243.914C-1037.11 245.161 -1036.31 246.296 -1035.53 247.487C-1035.5 247.543 -1035.5 247.543 -1035.45 247.57C-1035.12 248.097 -1034.7 248.678 -1034.31 249.205C-1030.68 254.468 -1026.75 259.454 -1022.4 264.163C-1021.46 265.16 -1020.49 266.213 -1019.52 267.182C-1018.75 268.041 -1017.86 268.844 -1017.03 269.647C-1014.81 271.78 -1012.57 273.775 -1010.19 275.686C-1009.11 276.572 -1007.97 277.459 -1006.83 278.29C-1006.09 278.872 -1005.39 279.37 -1004.65 279.896C-1004.06 280.312 -1003.46 280.755 -1002.82 281.143C-1001.71 281.919 -1000.55 282.666 -999.328 283.414C-994.674 286.323 -989.688 288.954 -984.37 291.087C-903.237 324.05 -812.352 310.533 -738.781 255.742C-705.292 230.729 -608.397 121.674 -518.039 42.8394C-518.012 42.7563 -517.956 42.7009 -517.901 42.6732C-473.553 4.0316 -430.812 -27.3803 -397.794 -37.9617C-397.794 -37.9617 -366.825 -51.9502 -315.358 -68.958L-315.192 -69.0134C-239.322 -93.9712 -119.187 -125.3 11.5022 -127.544C230.914 -131.339 380.439 197.627 380.439 197.627C380.439 197.627 424.233 292.001 456.642 427.427C456.642 427.427 456.67 427.482 456.67 427.538C468.969 479.004 479.661 536.371 485.561 596.785C488.414 625.011 490.215 653.819 490.63 683.07C491.544 736.587 487.915 791.322 477.971 845.476C477.916 845.836 477.833 846.224 477.777 846.584C478.054 845.919 478.304 845.254 478.581 844.589L478.608 844.506L487.223 831.349C487.223 831.349 494.009 858.966 483.428 899.269C473.096 938.326 428.056 1009.82 425.175 1014.22C425.092 1014.36 425.064 1014.45 425.064 1014.45C316.092 1258.54 126.485 1311.83 29.4243 1316.49C-79.7693 1321.64 -58.2741 1283.52 -112.622 1309.15C-146 1324.85 -156.249 1336.1 -156.304 1345.18C-156.249 1350.95 -152.233 1355.79 -147.302 1360.42C-146.332 1361.31 -145.335 1362.16 -144.31 1362.97C-142.399 1364.49 -140.405 1365.88 -138.438 1367.21C-136.61 1368.45 -134.865 1369.62 -133.175 1370.75C-132.649 1371.11 -132.122 1371.56 -131.541 1371.89C-130.71 1372.52 -129.879 1373.19 -129.103 1373.83C-128.244 1374.55 -127.441 1375.29 -126.776 1376.1C-126.444 1376.4 -126.167 1376.74 -125.945 1377.07C-125.613 1377.43 -125.364 1377.82 -125.142 1378.23C-124.865 1378.62 -124.671 1379.03 -124.477 1379.42C-123.923 1380.7 -123.563 1382.05 -123.591 1383.52C-123.591 1384.52 -123.729 1385.54 -124.006 1386.62C-124.311 1387.76 -124.754 1388.95 -125.391 1390.2C-126.056 1391.44 -126.887 1392.8 -127.857 1394.21C-128.577 1395.29 -129.435 1396.32 -130.35 1397.34C-144.698 1413.55 -175.888 1421.61 -202.979 1447.12C-211.095 1454.82 -216.912 1460.28 -221.067 1464.21C-231.732 1474.24 -231.732 1474.24 -231.732 1474.24C-231.732 1474.24 -71.6809 1440.56 -2.48615 1425.02C25.2416 1418.81 81.2511 1405.1 141.582 1389.2L141.859 1389.12C232.078 1365.38 331.909 1336.71 361.797 1320.61C411.768 1293.69 499.993 1253.89 499.993 1253.89C499.993 1253.89 490.658 1226.21 495.505 1169.18C496.198 1161.23 497.167 1152.64 498.441 1143.53C509.023 1069.15 584.644 886.721 590.71 749.024C591.237 736.864 591.403 724.399 591.209 711.768C591.181 708.167 591.07 704.593 590.987 700.937C590.876 696.09 590.683 691.187 590.433 686.311C590.295 683.375 590.184 680.439 589.99 677.475C589.685 671.852 589.298 666.257 588.882 660.633C588.577 656.34 588.217 652.046 587.857 647.781C587.885 647.254 587.829 646.673 587.719 646.202C587.691 645.675 587.691 645.343 587.636 645.121C587.608 645.011 587.636 644.955 587.608 644.844C587.636 644.761 587.636 644.734 587.636 644.734C582.373 584.902 572.373 525.984 563.869 480.472C556.695 442.135 550.628 413.327 549.326 401.416C549.049 398.979 548.828 396.68 548.662 394.325C547.249 378.425 547.11 364.797 545.725 353.606C545.67 353.44 545.725 353.385 545.67 353.274C545.698 353.191 545.67 353.108 545.67 353.052C545.642 352.997 545.642 352.941 545.642 352.941C544.34 342.803 541.986 334.632 536.723 328.704C524.701 315.131 509.383 307.929 499.993 285.686C499.549 284.605 498.885 282.999 498.109 280.838C486.475 249.315 438.388 108.073 358.639 -7.38089C333.044 -44.4158 304.153 -78.8193 272.16 -106.076C249.501 -125.411 228.089 -141.338 207.674 -154.579C181.913 -171.227 157.675 -183.442 134.297 -192.196C134.213 -192.223 134.213 -192.223 134.213 -192.223C127.787 -191.752 121.527 -191.254 115.322 -190.727C111.97 -190.423 108.508 -190.146 104.99 -189.841C101.417 -189.509 97.7878 -189.176 94.0483 -188.816C89.7271 -189.259 84.0763 -189.841 77.3452 -190.478C74.8245 -190.7 72.0545 -190.977 69.2568 -191.254C69.0906 -191.254 68.8967 -191.309 68.6474 -191.309C66.7915 -191.503 64.7971 -191.669 62.8304 -191.835C55.0744 -192.583 46.4874 -193.331 37.3464 -194.051C35.7952 -194.162 34.2439 -194.273 32.6927 -194.439C30.2551 -194.633 27.7344 -194.799 25.2414 -194.993C21.1141 -195.326 16.9037 -195.63 12.6102 -195.963C12.444 -195.963 12.1947 -195.963 12.0008 -196.018C9.42467 -196.24 6.87633 -196.406 4.27253 -196.544C1.25322 -196.738 -1.79378 -196.988 -4.89618 -197.154C-9.27279 -197.403 -13.788 -197.68 -18.3031 -197.957C-27.3333 -198.511 -36.4466 -198.954 -45.4491 -199.342C-45.5599 -199.37 -45.7261 -199.314 -45.8646 -199.398C-51.7093 -199.619 -57.5263 -199.841 -63.2879 -199.979C-66.418 -200.09 -69.5205 -200.145 -72.5675 -200.229C-78.2737 -200.367 -83.869 -200.422 -89.4091 -200.395C-89.5199 -200.422 -89.6307 -200.395 -89.7138 -200.422C-97.9961 -200.478 -106.001 -200.339 -113.563 -200.062C-116.167 -199.979 -118.688 -199.868 -121.153 -199.758C-125.447 -199.508 -129.574 -199.259 -133.397 -198.871C-138.272 -198.456 -142.842 -197.957 -146.97 -197.292C-173.866 -192.168 -200.902 -185.658 -227.106 -178.456C-295.331 -159.703 -358.293 -135.992 -399.705 -117.433C-452.64 -93.7496 -528.122 -36.2166 -598.453 28.9894C-622.496 51.2602 -645.931 74.4728 -667.675 97.4916C-668.949 98.8766 -670.251 100.178 -671.47 101.536C-684.96 115.968 -697.065 129.873 -708.283 142.92C-708.283 142.92 -708.283 142.92 -708.311 143.003C-766.37 210.646 -800.691 257.986 -881.381 259.731C-884.262 259.842 -887.226 259.869 -890.273 259.786C-993.705 257.958 -1033.18 172.42 -1043.2 159.429C-1067.05 128.405 -1074.34 127.269 -1074.34 127.269C-1074.34 127.269 -1074.26 128.294 -1074.09 130.233C-1072.82 143.612 -1065.89 200.093 -1037.83 243.914Z" fill="url(#paint18_linear_470_1005)"/>
<path d="M-231.705 1474.24C-231.705 1474.24 -71.6546 1440.56 -2.4599 1425.02C25.2678 1418.81 81.2774 1405.1 141.608 1389.2L141.885 1389.12C232.104 1365.38 331.935 1336.71 361.823 1320.61C411.794 1293.69 500.019 1253.89 500.019 1253.89C500.019 1253.89 490.684 1226.21 495.532 1169.18C496.224 1161.23 497.194 1152.64 498.468 1143.53C509.049 1069.15 584.67 886.721 590.737 749.024C591.263 736.864 591.429 724.399 591.235 711.767C591.207 708.166 591.097 704.593 591.014 700.937C590.903 696.089 590.709 691.186 590.46 686.311C590.321 683.375 590.21 680.439 590.016 677.475C589.712 671.852 589.324 666.256 588.908 660.633C588.604 656.34 588.244 652.046 587.883 647.78C587.911 647.254 587.856 646.672 587.745 646.201C587.717 645.675 587.717 645.343 587.662 645.121C587.274 789.688 545.724 965.5 452.957 1101.92C332.267 1279.4 141.331 1359.31 19.3677 1374.96C-67.3057 1386.1 -128.301 1360.75 -156.278 1345.24C-156.223 1351 -152.206 1355.85 -147.276 1360.47C-146.306 1361.36 -145.309 1362.22 -144.284 1363.02C-142.373 1364.55 -140.378 1365.93 -138.412 1367.26C-136.583 1368.45 -134.838 1369.62 -133.149 1370.81C-132.622 1371.17 -132.096 1371.61 -131.514 1371.94C-130.656 1372.61 -129.852 1373.24 -129.077 1373.88C-128.218 1374.6 -127.415 1375.35 -126.75 1376.15C-126.418 1376.46 -126.141 1376.79 -125.919 1377.12C-125.642 1377.51 -125.337 1377.87 -125.116 1378.29C-124.894 1378.67 -124.7 1379.09 -124.451 1379.48C-124.174 1380.11 -123.952 1380.78 -123.786 1381.44C-123.648 1382.11 -123.565 1382.83 -123.565 1383.58C-123.565 1384.57 -123.703 1385.6 -123.98 1386.68C-124.285 1387.81 -124.728 1389.01 -125.365 1390.25C-125.974 1391.5 -126.805 1392.83 -127.83 1394.27C-128.55 1395.35 -129.409 1396.37 -130.323 1397.4C-86.4742 1409.89 -28.4703 1407.51 31.7219 1402.88C-52.597 1426.07 -136.916 1446.57 -221.069 1464.27C-231.705 1474.24 -231.705 1474.24 -231.705 1474.24Z" fill="url(#paint19_linear_470_1005)"/>
<path d="M-147.248 1360.42C-139.326 1367.76 -128.938 1371.91 -125.116 1378.23C-47.3617 1401.36 78.2026 1402.52 264.707 1307.96C608.326 1133.75 590.293 689.109 587.856 647.752C587.773 647.143 587.745 646.617 587.717 646.174C587.662 645.204 587.606 644.678 587.606 644.678C587.302 789.327 545.752 965.334 452.929 1101.87C332.24 1279.34 141.303 1359.26 19.3401 1374.91C-67.3334 1386.04 -128.329 1360.7 -156.306 1345.18C-156.223 1350.95 -152.206 1355.79 -147.248 1360.42Z" fill="url(#paint20_linear_470_1005)"/>
<path d="M425.091 1014.45C439.551 1006.77 473.788 952.537 511.266 858.744C557.913 741.989 565.364 585.871 563.841 480.445C556.667 442.108 550.6 413.3 549.298 401.389C549.021 398.951 548.8 396.652 548.634 394.298C547.221 378.398 547.082 364.769 545.697 353.579C545.642 353.412 545.697 353.357 545.642 353.246C546.972 444.379 543.454 680.688 478.608 844.506L487.223 831.377C487.223 831.377 494.009 858.994 483.428 899.297C473.096 938.354 428.055 1009.85 425.175 1014.25C425.147 1014.36 425.091 1014.45 425.091 1014.45Z" fill="url(#paint21_linear_470_1005)"/>
<path d="M478.581 844.562C481.295 840.822 484.176 836.473 487.251 831.349C571.514 690.965 546.917 368.62 545.698 353.579C545.642 353.412 545.698 353.357 545.642 353.246C547 444.379 543.51 680.771 478.581 844.562Z" fill="url(#paint22_linear_470_1005)"/>
<path d="M141.859 1389.12C232.078 1365.38 331.909 1336.71 361.798 1320.61C411.769 1293.69 499.993 1253.89 499.993 1253.89C499.993 1253.89 490.658 1226.21 495.506 1169.18C452.238 1239.59 355.787 1327.48 141.859 1389.12Z" fill="url(#paint23_linear_470_1005)"/>
<path opacity="0.5" d="M-127.607 1327.65C-128.272 1320.06 -106.832 1308.95 -87.0266 1308.01C-68.2736 1307.13 -54.4236 1316.54 -49.9916 1317.62C5.04839 1331.22 99.3394 1319.51 163.188 1294.49C252.188 1259.59 301.162 1205.83 301.245 1205.91C301.356 1206.08 200.14 1324.27 46.737 1346.38C-33.4546 1357.93 -126.25 1343 -127.607 1327.65Z" fill="url(#paint24_linear_470_1005)"/>
<path d="M477.777 846.556C478.054 845.891 478.303 845.226 478.58 844.562L477.971 845.448C477.915 845.808 477.86 846.196 477.777 846.556Z" fill="url(#paint25_linear_470_1005)"/>
<path d="M-898.195 277.348C-782.686 267.431 -730.278 191.644 -708.395 143.169C-708.367 143.086 -708.312 143.03 -708.339 142.975C-708.312 142.892 -708.312 142.892 -708.312 142.892C-697.093 129.845 -684.961 115.94 -671.498 101.508C-670.28 100.151 -668.978 98.8212 -667.703 97.4639C-684.268 150.759 -716.262 208.043 -777.091 248.097C-802.797 265.049 -827.394 275.825 -850.607 282.417C-846.923 281.725 -843.183 280.949 -839.361 280.09C-798.614 271.032 -767.285 251.642 -739.003 225.798C-738.865 225.687 -738.726 225.604 -738.616 225.521C-738.532 225.438 -738.422 225.355 -738.311 225.189C-722.162 210.48 -707.01 193.694 -691.664 175.55C-634.491 108.101 -574.493 22.5076 -451.089 -42.6152C-425.411 -56.1883 -399.65 -68.5979 -374.028 -79.8164C-345.967 -92.0598 -318.738 -106.131 -292.395 -121.754C-251.898 -145.853 -199.046 -174.994 -146.97 -197.32C-142.843 -197.985 -138.3 -198.483 -133.397 -198.899C-129.547 -199.231 -125.447 -199.536 -121.154 -199.785C-118.688 -199.896 -116.14 -200.007 -113.564 -200.09C-106.085 -200.367 -98.052 -200.45 -89.7143 -200.45C-89.6312 -200.422 -89.5481 -200.45 -89.4096 -200.422C-83.925 -200.45 -78.3019 -200.339 -72.568 -200.256C-69.521 -200.173 -66.4185 -200.118 -63.2884 -200.007C-57.5268 -199.813 -51.7098 -199.647 -45.8651 -199.425C-45.7266 -199.342 -45.5604 -199.398 -45.4496 -199.37C-36.4194 -199.01 -27.3061 -198.483 -18.3036 -197.985C-13.7885 -197.708 -9.27332 -197.431 -4.89671 -197.182C-1.822 -197.043 1.22501 -196.794 4.27202 -196.6C6.84812 -196.378 9.45184 -196.24 12.0002 -196.074C12.1941 -196.018 12.4158 -196.018 12.6097 -196.018C16.9032 -195.686 21.1413 -195.381 25.2409 -195.049C27.7339 -194.882 30.2546 -194.689 32.6922 -194.495C34.2711 -194.328 35.7947 -194.218 37.3459 -194.107C46.4869 -193.359 55.1015 -192.639 62.8299 -191.891C64.7966 -191.725 66.7633 -191.558 68.6469 -191.365C68.8685 -191.365 69.0624 -191.309 69.2563 -191.309C72.0817 -191.06 74.7686 -190.755 77.3447 -190.534C84.0758 -189.869 89.7266 -189.315 94.0478 -188.872C19.9225 -182.113 -86.8612 -169.565 -153.397 -149.427C-153.397 -149.427 -153.175 -149.482 -152.676 -149.593C-46.6407 -169.758 50.3648 -168.318 127.011 -146.823C127.011 -146.823 127.648 -146.601 128.867 -146.269C131.304 -145.549 133.714 -144.69 136.18 -143.804C167.065 -133.111 270.83 -92.8909 358.639 -7.40856C438.387 108.045 486.474 249.315 498.108 280.81C526.446 454.462 501.599 623.044 490.657 683.043C490.242 653.792 488.441 624.983 485.588 596.757C485.976 589.361 486.391 581.079 486.668 571.91C489.688 485.929 487.195 326.239 441.351 176.326C410.438 75.2207 329.748 1.76017 251.8 -48.1276C347.337 71.2042 431.822 271.586 456.669 427.427C424.26 292.001 380.466 197.627 380.466 197.627C380.466 197.627 230.914 -131.339 11.4463 -127.516C-119.27 -125.272 -239.405 -93.9157 -315.248 -68.9857L-315.414 -68.9303C-366.853 -51.9225 -397.85 -37.9339 -397.85 -37.9339C-430.84 -27.3525 -473.581 4.05933 -517.957 42.7009C-518.012 42.7286 -518.04 42.784 -518.096 42.8671C-608.425 121.701 -705.348 230.757 -738.837 255.77C-812.408 310.56 -903.32 324.078 -984.426 291.115C-989.716 288.982 -994.73 286.351 -999.384 283.442C-1000.6 282.694 -1001.77 281.946 -1002.87 281.171C-1003.51 280.783 -1004.12 280.312 -1004.7 279.924C-1005.45 279.398 -1006.11 278.899 -1006.89 278.318C-1008.03 277.487 -1009.16 276.6 -1010.24 275.714C-1012.62 273.802 -1014.87 271.808 -1017.08 269.675C-1017.92 268.872 -1018.77 268.096 -1019.58 267.21C-1020.57 266.24 -1021.52 265.188 -1022.46 264.191C-1026.78 259.482 -1030.74 254.496 -1034.37 249.233C-1034.76 248.706 -1035.17 248.124 -1035.5 247.598C-1035.59 247.57 -1035.59 247.57 -1035.59 247.515C-1036.34 246.352 -1037.17 245.188 -1037.89 243.942C-995.257 266.905 -947.695 281.614 -898.195 277.348Z" fill="url(#paint26_linear_470_1005)"/>
<path d="M441.351 176.326C487.194 326.238 489.687 485.957 486.668 571.91C496.003 504.017 500.629 398.868 475.92 264.827C430.631 19.2663 251.799 -48.1279 251.799 -48.1279C329.747 1.75987 410.438 75.2204 441.351 176.326Z" fill="url(#paint27_linear_470_1005)"/>
<path d="M-481.005 11.1777C-339.79 -97.9604 -153.397 -149.427 -153.397 -149.427L-153.341 -149.427C-153.369 -149.427 -153.369 -149.427 -153.397 -149.427C-153.397 -149.427 -153.175 -149.483 -152.676 -149.593C-46.6407 -169.759 50.3648 -168.319 127.011 -146.823C127.011 -146.823 127.648 -146.602 128.867 -146.269C131.304 -145.549 133.714 -144.69 136.18 -143.804C167.065 -133.112 270.83 -92.8914 358.639 -7.40908C274.458 -76.3545 184.461 -119.456 89.4773 -140.397C31.6396 -153.167 -28.2479 -153.056 -86.3626 -141.533C-170.1 -124.94 -263.477 -95.4675 -315.276 -68.9585L-315.442 -68.9031C-366.881 -51.8953 -397.877 -37.9068 -397.877 -37.9068C-430.868 -27.3253 -473.609 4.08653 -517.985 42.7281C-514.328 38.0745 -502.944 28.1579 -481.005 11.1777Z" fill="url(#paint28_linear_470_1005)"/>
<path opacity="0.5" d="M568.523 627.117C571.266 627.283 574.978 693.874 566.612 760.935C540.131 972.924 395.675 1132.75 389.997 1129.4C388.058 1128.24 402.573 1108.32 456.338 992.674C503.816 890.544 532.043 837.166 545.089 785.865C567.665 697.253 565.698 626.95 568.523 627.117Z" fill="url(#paint29_linear_470_1005)"/>
<path opacity="0.5" d="M508.83 310.671C510.963 310.56 525.949 376.292 526.697 444.462C528.331 595.012 496.753 712.1 493.706 711.629C490.853 711.186 513.871 607.699 516.531 443.576C517.722 370.088 506.836 310.782 508.83 310.671Z" fill="url(#paint30_linear_470_1005)"/>
<path opacity="0.5" d="M301.686 1.73234C307.032 -1.89637 352.46 42.3683 381.628 86.4945C468.136 217.405 468.191 367.955 459.05 369.894C452.181 371.334 443.316 287.541 380.327 151.202C340.577 65.1377 295.786 5.74885 301.686 1.73234Z" fill="url(#paint31_linear_470_1005)"/>
<path d="M365.482 822.457C389.082 863.259 438.97 886.721 474.897 896.721C529.632 911.873 542.928 969.212 542.928 969.212C542.928 969.212 551.737 913.147 563.648 889.104C575.531 865.088 661.457 769.273 576.972 679.303C564.285 665.758 553.122 656.839 543.344 651.382C543.261 651.299 543.095 651.16 542.901 651.105C488.193 620.967 477.39 701.353 477.39 701.353L474.703 699.192C468.027 694.095 449.939 681.409 429.386 677.531C402.351 672.323 371.022 682.24 355.704 743.955C347.92 775.201 353.128 801.184 365.482 822.457Z" fill="url(#paint32_linear_470_1005)"/>
<path opacity="0.2" d="M365.482 822.457C389.082 863.26 438.97 886.721 474.897 896.721C529.632 911.873 542.928 969.212 542.928 969.212C542.928 969.212 551.737 913.147 563.648 889.104C575.531 865.088 661.457 769.273 576.972 679.303C564.285 665.758 553.122 656.839 543.344 651.382C559.133 661.659 590.212 689.58 584.146 747.058C576.113 823.344 522.735 880.323 522.735 880.323C521.267 876.389 519.854 872.456 518.442 868.578C497.556 810.657 482.902 754.592 477.418 701.38L474.731 699.22C468.055 694.123 449.967 681.436 429.414 677.558C428.416 692.821 428.998 720.106 439.69 755.617C456.643 811.876 499.744 882.677 499.744 882.677C499.744 882.677 407.863 869.354 365.482 822.457Z" fill="#5C001A"/>
<path d="M410.993 687.753C418.749 690.19 414.677 709.026 422.682 746.227C434.593 801.572 461.296 826.087 454.51 833.261C445.396 842.9 376.783 818.386 367.864 768.997C360.302 727.087 398.805 683.902 410.993 687.753Z" fill="#74A04B"/>
<path d="M494.593 681.686C491.795 700.19 507.113 708.583 518.221 734.926C533.65 771.545 532.126 795.284 538.497 796.752C548.663 799.107 579.715 737.169 556.946 688.307C550.353 674.152 533.899 651.659 517.085 654.485C505.728 656.368 496.449 669.388 494.593 681.686Z" fill="#74A04B"/>
<path d="M340.996 372.082C340.996 372.082 356.757 364.908 376.562 361.639C396.368 358.371 397.393 359.506 397.393 359.506L398.889 365.545C380.413 364.603 360.912 367.484 340.996 372.082Z" fill="url(#paint33_linear_470_1005)"/>
<path d="M308.141 465.653C308.141 465.653 308.833 463.963 347.032 430.696C385.147 397.456 374.51 376.348 363.375 367.346C359.607 364.299 355.342 363.274 351.297 363.246C343.403 363.107 336.506 366.819 336.506 366.819L336.506 366.708C336.146 365.351 331.547 349.202 311.853 354.825C308.833 355.684 306.229 357.235 304.041 359.313C290.994 371.307 290.551 400.78 292.213 412.829C294.623 430.474 304.346 455.958 307.282 463.52C307.808 464.877 308.141 465.653 308.141 465.653Z" fill="url(#paint34_linear_470_1005)"/>
<path opacity="0.3" d="M308.141 465.653C308.141 465.653 308.833 463.963 347.032 430.695C385.147 397.455 374.51 376.348 363.375 367.345C359.607 364.298 355.342 363.273 351.297 363.246C363.375 367.345 371.906 385.655 356.283 407.51C338.805 431.97 317.06 448.728 310.994 453.215L311.659 450.113L336.478 366.764L336.478 366.653C336.118 365.296 331.52 349.146 311.825 354.769C308.806 355.628 306.202 357.179 304.013 359.257C308.999 358.149 315.37 358.703 318.556 366.847C324.151 381.306 315.564 391.915 311.382 422.441C308.778 441.221 308.196 453.299 308.058 459.725L307.227 463.464C307.808 464.877 308.141 465.653 308.141 465.653Z" fill="#5C001A"/>
<path d="M302.656 370.392C300.385 370.143 295.315 387.899 295.731 405.267C296.036 417.482 299.11 432.634 301.16 432.496C305.26 432.219 306.783 370.863 302.656 370.392Z" fill="#74A04B"/>
<path d="M342.156 375.655C342.849 375.046 348.167 370.281 352.239 371.888C357.17 373.827 358.167 384.325 356.339 391.721C352.294 408.036 332.267 418.091 328.583 414.878C326.893 413.41 329.996 410.446 334.649 393.272C337.059 384.297 337.669 379.644 342.156 375.655Z" fill="#74A04B"/>
<path opacity="0.3" d="M529.465 900.405L518.468 868.577C497.582 810.657 482.929 754.592 477.444 701.38C477.444 701.38 466.669 730.216 475.284 778.58C483.926 826.889 529.465 900.405 529.465 900.405Z" fill="#5C001A"/>
<path d="M696.636 157.24C696.636 157.24 671.512 143.751 633.092 149.152C594.672 154.581 547.028 209.095 481.351 154.831C445.286 125.025 454.344 98.7934 469.856 81.1762C477.889 72.0351 487.695 65.1932 493.816 61.426C497.03 59.4039 501.101 59.9302 503.899 62.5063C510.159 68.2956 517.722 72.2013 526.502 74.3342C522.098 48.4901 528.774 29.2386 544.23 19.1558C551.488 14.3359 560.684 11.6213 571.626 11.2335C578.994 10.9565 586.39 12.0645 593.481 14.0035C610.461 18.574 647.524 30.4297 668.853 51.1493C669.158 51.4817 669.518 51.7864 669.85 52.1742C697.135 80.4559 696.636 157.24 696.636 157.24Z" fill="url(#paint35_linear_470_1005)"/>
<path opacity="0.2" d="M696.636 157.24C696.636 157.24 671.512 143.75 633.092 149.152C594.672 154.581 547.028 209.095 481.351 154.83C445.286 125.025 454.344 98.7933 469.856 81.1761C470.604 93.4195 477.086 116.189 513.567 123.89C564.451 134.609 586.556 112.255 626.721 114.97C653.23 116.826 662.842 120.372 666.305 122.56C660.875 117.629 643.48 104.139 604.838 93.835C556.64 80.9267 537.333 82.0624 526.447 74.3064C522.043 48.4623 528.718 29.2108 544.175 19.1279C538.746 31.7869 535.2 52.091 562.568 60.4287C596.307 70.7608 642.953 65.7748 667.773 83.8629C673.451 76.7717 672.842 64.7499 669.795 52.1464C697.135 80.4558 696.636 157.24 696.636 157.24Z" fill="#5C001A"/>
<path d="M480.743 82.0898C480.106 88.1838 501.795 95.4689 513.208 98.4882C552.93 109.07 591.405 100.926 591.35 97.214C591.294 94.1116 569.633 94.3055 532.625 83.7241C521.878 80.6494 513.374 74.0845 498.721 74.9986C491.242 75.4695 481.159 78.0456 480.743 82.0898Z" fill="#74A04B"/>
<path d="M555.698 20.1243C557.083 15.5538 583.259 16.7449 586.251 17.2712C612.15 21.8971 646.941 36.8828 645.861 42.3397C644.753 47.9074 607.635 48.2121 576.085 34.0574C568.329 30.6226 554.673 23.476 555.698 20.1243Z" fill="#74A04B"/>
<path opacity="0.3" d="M526.501 74.3067C526.501 74.3067 587.164 75.2208 610.682 84.6388C634.199 94.0568 666.331 122.532 666.331 122.532C647.08 102.644 590.516 87.9628 526.501 74.3067Z" fill="#5C001A"/>
<path d="M569.132 660.218C594.062 690.328 619.768 721.019 636.305 756.752C651.318 789.244 657.662 825.559 652.565 861.098C645.64 909.379 617.635 951.954 578.246 980.153C564.202 990.208 548.191 999.46 531.211 1003.45C528.801 1004 525.588 1000.21 524.12 998.657C523.732 998.269 518.414 991.649 519.66 991.344C534.147 987.937 547.831 980.596 560.185 972.508C577.609 961.095 593.231 946.858 606.084 930.459C621.347 910.986 632.565 888.3 638.133 864.145C645.751 831.127 643.285 796.225 631.901 764.37C617.663 724.537 590.184 691.602 563.565 659.442C562.817 658.528 559.022 654.428 561.155 653.68C563.038 652.96 568.246 659.137 569.132 660.218Z" fill="url(#paint36_linear_470_1005)"/>
<g opacity="0.2">
<path d="M524.923 999.349C526.557 1001.07 529.244 1003.86 531.322 1003.37C548.302 999.404 564.285 990.125 578.384 980.098C617.774 951.871 645.751 909.296 652.703 861.043C657.773 825.476 651.457 789.161 636.416 756.697C619.879 720.963 594.146 690.244 569.243 660.162C568.384 659.082 563.149 652.904 561.21 653.597C560.739 653.791 560.545 654.096 560.545 654.483C561.321 655.342 561.903 656.062 562.152 656.339C587.11 686.394 612.843 717.113 629.325 752.874C644.338 785.338 650.681 821.653 645.612 857.22C638.632 905.474 610.682 948.076 571.293 976.275C557.443 986.219 541.682 995.36 524.923 999.349Z" fill="#5C001A"/>
</g>
<path d="M407.751 908.964C423.235 946.636 439.079 985.665 441.6 1026.8C442.32 1038.43 441.849 1050.1 440.049 1061.65C439.689 1063.92 434.952 1059.49 434.398 1058.99C432.847 1057.57 426.393 1052.23 426.808 1049.65C434.924 997.244 415.977 947.384 396.449 899.823C395.119 896.554 399.579 899.657 400.327 900.266C403.069 902.454 406.338 905.584 407.751 908.964Z" fill="url(#paint37_linear_470_1005)"/>
<path d="M473.096 1037.41C473.096 1037.41 440.992 1012.95 431.768 1010.26C422.544 1007.6 392.046 999.959 388.722 1026.69C385.398 1053.42 406.145 1117.41 518.469 1181.53C630.793 1245.66 705.223 1246.49 705.223 1246.49C705.223 1246.49 685.916 1188.98 685.223 1135.77C684.531 1082.56 672.01 1034.39 621.541 1022.87C571.071 1011.34 557.554 967.44 511.738 965.418C443.069 962.371 473.096 1037.41 473.096 1037.41Z" fill="url(#paint38_linear_470_1005)"/>
<path opacity="0.3" d="M518.024 1181.7C611.734 1235.16 679.017 1244.61 698.795 1246.3C669.544 1241.86 609.878 1227.88 531.902 1183.36C419.551 1119.26 398.803 1055.25 402.127 1028.55C404.039 1013.06 415.091 1009.1 425.783 1009.02C413.429 1006.28 391.075 1004.2 388.277 1026.88C384.981 1053.56 405.728 1117.57 518.024 1181.7Z" fill="#5C001A"/>
<path opacity="0.3" d="M473.096 1037.41C473.096 1037.41 550.545 1074.45 587.829 1116.13C625.114 1157.82 637.994 1189.07 650.986 1205.94C663.977 1222.81 690.68 1237.52 690.68 1237.52C690.68 1237.52 657.689 1218.26 621.845 1146.94C586.029 1075.64 473.096 1037.41 473.096 1037.41Z" fill="#5C001A"/>
<path d="M502.956 1036.36C494.812 1024.7 493.953 1006.05 502.291 997.965C514.839 985.804 547.387 998.38 566.555 1014.22C601.097 1042.76 606.914 1094.06 599.186 1097.91C593.48 1100.73 582.067 1078.6 550.101 1062.23C525.227 1049.51 513.177 1051.01 502.956 1036.36Z" fill="#74A04B"/>
<path d="M520.96 978.741C520.656 976.664 492.955 971.927 481.1 986.802C467.388 1003.95 484.618 1034.92 485.393 1034.72C486.058 1034.56 474.812 1012.04 484.867 996.054C495.199 979.628 521.265 980.764 520.96 978.741Z" fill="#74A04B"/>
<path d="M453.706 502.494C457.307 514.294 465.23 525.125 474.869 533.296C475.673 533.989 476.448 534.681 477.362 535.346C479.08 536.565 480.714 537.784 482.459 538.892C482.459 538.892 482.404 538.919 482.487 538.947C483.401 539.473 484.26 540 485.118 540.498C491.545 544.21 498.664 546.786 506.087 547.479C515.422 548.337 524.674 545.9 533.4 542.797C535.394 542.077 537.444 541.357 539.41 540.526C549.355 536.426 558.413 530.886 566.307 523.795C567.775 522.493 569.16 521.081 570.545 519.668C570.988 519.252 571.376 518.781 571.847 518.338C574.008 516.011 576.058 513.518 577.969 510.831C578.883 509.557 579.714 508.311 580.573 507.064C581.348 505.956 582.041 504.821 582.733 503.602L582.761 503.519C593.204 517.895 600.406 534.21 606.084 551.135C611.209 566.37 615.059 582.048 618.882 597.283C619.408 599.444 621.458 601.355 622.981 602.796C623.148 602.934 627.164 606.037 626.776 604.568C620.932 581.273 615.059 557.755 605.143 535.817C599.547 523.407 592.622 511.69 584.229 500.97C585.586 498.754 586.805 496.344 587.775 494.018C588.744 492.217 589.492 490.417 590.185 488.644C590.157 488.588 590.185 488.478 590.268 488.394C590.988 486.539 591.653 484.71 592.318 482.827C592.955 480.888 593.536 478.949 594.118 477.037C595.281 473.132 596.196 469.198 596.86 465.21C598.024 459.199 598.716 453.16 599.021 447.066C599.104 445.044 599.187 442.994 599.27 440.944C599.298 438.894 599.326 436.845 599.298 434.823C599.27 432.8 599.215 430.695 599.132 428.701C599.049 426.679 598.938 424.629 598.799 422.579C598.661 420.529 598.467 418.535 598.301 416.485C598.107 414.435 597.885 412.413 597.636 410.391C597.442 408.369 597.165 406.347 596.86 404.325C596.805 403.965 596.611 403.605 596.445 403.217C596.445 403.217 596.445 403.217 596.445 403.189C596.279 402.801 596.057 402.441 595.808 402.081C595.808 402.053 595.78 402.026 595.78 402.026C595.78 402.026 595.78 402.026 595.78 402.053C594.894 400.807 593.675 399.643 592.761 398.812C592.539 398.646 588.717 395.488 588.966 397.04C593.675 429.116 592.761 463.769 576.889 492.383C574.7 489.946 572.484 487.647 570.13 485.403C567.997 483.353 565.864 481.442 563.593 479.558L563.703 480.112L564.424 484.046C565.31 484.71 566.252 485.486 567.055 486.234C567.748 486.843 568.412 487.453 569.133 488.062C569.825 488.671 570.518 489.336 571.155 489.946C571.819 490.555 572.484 491.248 573.121 491.857C573.925 492.771 574.783 493.685 575.587 494.599C573.454 498.339 571.072 501.857 568.385 505.291C557.914 518.698 544.092 527.922 528.164 533.85C512.403 539.75 496.365 542.022 481.074 533.629C470.465 527.839 461.767 516.371 460.271 504.045C460.022 502.078 460.022 500.167 460.133 498.2C460.188 497.258 460.299 496.289 460.548 495.347C460.964 493.464 461.601 491.663 462.432 490.001C463.623 487.425 465.341 485.098 467.363 482.938C467.806 482.467 468.249 482.023 468.72 481.608L467.806 476.65L466.393 469.254C462.598 471.968 459.191 475.154 456.587 478.893C452.072 485.375 451.407 492.854 453.125 500.278L453.18 500.499C453.291 501.109 453.485 501.801 453.706 502.494Z" fill="url(#paint39_linear_470_1005)"/>
<g opacity="0.3">
<path d="M584.175 500.998C600.989 470.528 601.488 436.346 596.806 404.353C596.696 403.577 596.28 402.774 595.754 401.998C600.186 433.936 598.856 468.173 582.79 496.511C582.652 498.034 583.455 500.001 584.175 500.998Z" fill="#5C001A"/>
<path d="M563.647 480.085L564.367 484.018L564.395 484.074C565.281 484.739 566.168 485.459 567.026 486.207C567.719 486.816 568.384 487.425 569.104 488.035C569.769 488.7 570.489 489.309 571.126 489.918C571.791 490.583 574.893 493.907 575.558 494.572C575.558 494.572 576.195 493.824 576.527 493.132C573.314 489.503 567.442 483.16 563.647 480.085Z" fill="#5C001A"/>
<path d="M460.659 506.981C460.465 505.984 460.299 505.042 460.244 504.017C459.967 502.133 459.884 500.167 460.078 498.228L460.105 498.144C460.161 497.203 460.272 496.233 460.521 495.291C460.881 493.38 461.518 491.607 462.404 489.945C463.596 487.369 465.313 485.042 467.335 482.882C467.778 482.466 468.166 481.995 468.692 481.607L468.665 481.552L467.751 476.594C462.737 481.247 459.219 486.981 458.693 493.712C458.36 498.228 459.08 502.743 460.659 506.981Z" fill="#5C001A"/>
<path d="M453.679 502.521C458.472 518.255 470.964 532.271 485.036 540.498C491.462 544.21 498.581 546.786 506.005 547.478C515.34 548.337 524.592 545.899 533.317 542.797C551.239 536.537 566.668 526.232 577.914 510.776C579.576 508.394 581.21 506.067 582.651 503.518C594.617 520.028 602.346 539.085 608.356 558.697C602.512 538.725 595.088 519.114 583.509 502.106C582.789 501.053 582.014 500.056 581.294 498.976C581.017 499.585 580.684 500.084 580.379 500.527C579.216 502.438 577.914 504.349 576.557 506.233C565.311 521.69 549.882 531.966 531.96 538.254C523.234 541.357 513.982 543.794 504.647 542.936C497.224 542.271 490.105 539.695 483.679 535.955C470.244 528.116 458.333 515.042 453.098 500.194C453.208 500.97 453.43 501.718 453.679 502.521Z" fill="#5C001A"/>
</g>
<path d="M615.502 470.943C615.53 470.998 615.585 470.971 615.585 470.971C643.867 486.87 678.353 489.419 712.452 488.477C775.608 486.649 818.266 535.207 820.87 538.254C819.679 536.232 806.937 514.072 800.926 480.112C794.666 444.406 795.525 404.546 783.087 368.259C773.171 339.202 753.476 275.741 716.302 262.001C716.275 261.946 716.275 261.891 716.164 261.918C706.857 258.484 696.442 258.179 684.863 262.251C626.776 282.721 645.169 348.897 645.169 348.897C634.2 334.714 597.802 316.958 574.534 324.493C558.329 329.728 548.496 347.179 558.08 386.541C568.8 430.833 589.575 456.428 615.502 470.943Z" fill="url(#paint40_linear_470_1005)"/>
<path opacity="0.2" d="M777.771 478.699C777.771 478.699 777.743 478.643 777.687 478.616C725.694 420.916 686.72 384.131 645.17 348.924C634.201 334.742 597.803 316.986 574.535 324.52C578.579 411.221 777.771 478.699 777.771 478.699Z" fill="#5C001A"/>
<path d="M546.999 682.489C547.027 682.545 547.083 682.517 547.083 682.572C548.412 683.459 549.714 684.345 551.127 685.204C556.251 688.306 562.207 691.243 569.021 693.93C636.249 720.189 678.741 713.319 722.258 747.695C765.719 782.099 771.453 811.018 771.453 811.018C771.453 811.018 802.311 652.324 748.24 600.857C747.271 599.916 746.274 599.001 745.249 598.087C691.843 548.615 628.715 528.422 597.303 561.246C565.337 594.597 600.544 621.106 600.544 621.106C600.544 621.106 599.491 623.405 597.607 624.541C597.081 624.929 596.472 625.178 595.724 625.289C595.447 625.316 595.198 625.261 595.059 625.261C595.004 625.289 594.893 625.316 594.837 625.261C593.452 625.15 590.488 620.497 585.779 615.455C578.134 607.09 565.808 597.533 548.551 604.597C524.424 614.43 506.89 654.9 546.999 682.489Z" fill="url(#paint41_linear_470_1005)"/>
<path d="M546.998 682.489C534.478 664.872 531.708 642.352 543.702 625.676C557.053 607.089 575.086 610.746 585.778 615.455C578.133 607.089 565.807 597.533 548.549 604.597C524.423 614.43 506.889 654.9 546.998 682.489Z" fill="#74A04B"/>
<path opacity="0.3" d="M551.154 685.204C556.279 688.306 562.234 691.242 569.048 693.929C636.276 720.189 678.768 713.319 722.285 747.695C765.746 782.098 771.48 811.017 771.48 811.017C771.48 811.017 802.338 652.324 748.268 600.857C747.298 599.915 746.301 599.001 745.276 598.087C760.04 621.549 786.217 674.262 739.93 695.065C737.686 696.09 735.276 697.004 732.672 697.835C720.484 701.851 704.363 704.04 683.283 703.679C620.958 702.71 578.91 694.4 551.154 685.204Z" fill="#5C001A"/>
<path d="M349.054 293.635C349.054 293.663 349.027 293.663 349.054 293.691C348.722 294.494 348.39 295.297 348.002 296.128C346.589 299.092 344.761 302.25 342.462 305.518C319.692 337.844 298.197 347.567 288.751 376.458C279.306 405.322 285.427 420.252 285.427 420.252C285.427 420.252 223.324 357.096 232.437 317.236C232.603 316.515 232.77 315.795 232.963 315.075C242.381 276.323 265.123 247.986 289.388 253.47C314.069 259.038 306.036 281.78 306.036 281.78C306.036 281.78 307.227 282.5 308.418 282.472C308.778 282.5 309.139 282.417 309.499 282.25C309.637 282.167 309.748 282.084 309.776 282.029C309.803 282.029 309.859 282.001 309.886 281.973C310.468 281.503 310.44 278.483 311.078 274.744C312.047 268.622 314.762 260.506 324.789 258.512C338.805 255.714 359.054 268.871 349.054 293.635Z" fill="url(#paint42_linear_470_1005)"/>
<path opacity="0.3" d="M309.915 281.974C309.915 281.974 276.121 306.516 269.999 346.57C263.905 386.624 281.079 411.277 281.079 411.277C281.079 411.277 256.925 384.131 267.312 337.623C277.7 291.115 309.915 281.974 309.915 281.974Z" fill="#5C001A"/>
<path d="M349.055 293.635C349.442 281.807 343.902 270.672 333.376 266.683C321.659 262.223 314.513 269.37 311.05 274.744C312.02 268.622 314.734 260.506 324.762 258.512C338.805 255.714 359.054 268.871 349.055 293.635Z" fill="#74A04B"/>
<path d="M296.341 275.658C296.147 269.37 289.416 264.411 283.793 262.805C276.674 260.783 270.275 263.885 267.699 265.132C243.157 277.015 234.404 323.551 239.75 325.961C243.988 327.872 250.747 299.203 273.876 292.915C278.835 291.558 289.139 289.979 294.291 282.084C296.23 279.065 296.397 276.793 296.341 275.658Z" fill="#74A04B"/>
<path opacity="0.3" d="M348.002 296.128C346.589 299.092 344.761 302.25 342.462 305.518C319.693 337.844 298.197 347.567 288.752 376.458C279.306 405.322 285.428 420.252 285.428 420.252C285.428 420.252 223.324 357.096 232.437 317.235C232.604 316.515 232.77 315.795 232.964 315.075C233.324 330.254 237.313 362.248 264.763 357.761C266.093 357.539 267.478 357.234 268.918 356.819C275.705 354.963 283.738 351.085 293.239 344.548C321.382 325.241 338.085 308.704 348.002 296.128Z" fill="#5C001A"/>
<path d="M395.591 399.672C399.635 412.552 408.914 423.217 418.36 432.552C431.213 445.294 446.78 456.845 464.397 461.582L462.791 454.546C453.04 452.773 443.844 448.729 435.506 443.244C424.399 435.987 413.125 426.042 406.726 414.27C404.427 410.059 402.793 405.489 401.795 400.78C401.795 400.78 401.795 400.78 401.768 400.725C399.884 391.916 399.856 382.609 400.549 373.828C401.491 361.141 404.399 348.676 408.194 336.571C415.95 311.807 427.002 288.207 435.312 263.554C439.828 250.119 443.844 236.519 447.556 222.807C451.129 209.511 454.758 196.049 457.251 182.476C459.162 172.227 459.688 161.59 456.143 151.867C456.171 151.784 456.171 151.784 456.115 151.757C455.533 150.067 454.813 148.377 453.955 146.687C449.91 139.098 443.456 131.729 435.534 127.713L438.443 134.25C443.262 135.94 446.005 139.07 448.138 144.139C450.797 150.455 451.295 157.518 450.824 164.305C449.772 180.011 444.869 195.744 440.852 210.952C433.65 238.125 424.842 264.607 414.454 290.672C405.369 313.497 395.895 336.821 393.07 361.446C391.657 374.049 391.713 387.429 395.591 399.672Z" fill="url(#paint43_linear_470_1005)"/>
<path opacity="0.3" d="M408.332 336.515C416.143 311.724 427.196 288.123 435.45 263.498C439.965 250.064 444.037 236.435 447.721 222.751C451.295 209.455 454.979 195.965 457.472 182.42C459.411 171.866 459.937 161.008 456.031 150.98C457.721 159.152 457.112 167.739 455.533 176.077C453.04 189.65 449.328 203.112 445.782 216.408C442.098 230.092 438.054 243.72 433.511 257.155C425.257 281.78 414.177 305.381 406.393 330.227C402.626 342.305 399.662 354.742 398.775 367.429C397.917 378.869 398.166 391.334 402.266 402.22C400.022 392.996 399.967 382.996 400.687 373.8C401.629 361.085 404.565 348.62 408.332 336.515Z" fill="#5C001A"/>
<path d="M219.335 101.952C220.249 104.943 221.247 107.907 222.355 110.843C222.715 111.84 223.102 112.782 223.518 113.752C231.468 133.557 243.961 151.285 259.611 165.856C276.813 182.005 297.837 194.082 320.717 200.065C334.457 203.722 349.332 205.3 363.597 203.583C370.91 206.575 378.417 209.095 386.117 210.619L384.649 207.323C381.99 200.785 379.303 194.83 376.782 190.121C370.356 192.808 363.597 194.497 356.672 195.356C349.996 192.531 343.57 189.345 337.559 186.021C304.513 167.822 278.669 138.626 264.459 103.697C260.304 93.5861 257.063 83.0324 255.456 72.2017C253.822 60.9278 254.487 49.5985 255.982 38.3522C257.146 29.6267 258.669 20.9843 260.83 12.425L260.581 12.148L259.168 10.5414L253.046 3.53329C249.778 16.5246 247.728 29.8206 246.869 42.9782C245.262 66.08 252.021 88.7386 262.243 109.32C271.384 127.657 283.599 144.471 298.003 159.152C312.463 173.916 329.083 186.547 347.448 196.049C334.152 196.381 320.662 194.165 308.197 190.287C287.477 183.833 267.949 172.116 253.268 156.077C240.637 142.227 231.717 125.109 226.648 106.993L226.011 104.86C225.9 104.251 225.706 103.669 225.595 103.06C225.374 102.145 225.125 101.287 224.958 100.345C224.266 97.2979 223.712 94.251 223.186 91.2039C220.997 77.3539 221.108 63.4485 223.241 49.8201C224.875 39.1832 227.784 28.768 231.8 18.6298C235.235 9.95969 239.307 1.56658 243.822 -6.60494L242.049 -8.46084L236.094 -14.6933C229.196 -2.00672 223.158 11.04 219.169 24.89C211.745 50.0417 211.884 76.7445 219.335 101.952Z" fill="url(#paint44_linear_470_1005)"/>
<path opacity="0.3" d="M258.474 87.1326C257.061 82.2574 255.925 77.2991 255.233 72.2577C253.598 60.9838 254.208 49.6822 255.704 38.4359C256.867 29.5719 258.501 20.8187 260.606 12.1486L259.194 10.542C257.282 18.6858 255.842 26.885 254.706 35.1396C253.183 46.3858 252.573 57.6321 254.208 68.906C255.066 75.1108 256.562 81.1771 258.474 87.1326Z" fill="#5C001A"/>
<path opacity="0.3" d="M225.982 104.833L226.619 106.966C226.231 105.691 225.899 104.389 225.539 103.032C225.317 102.118 225.068 101.259 224.902 100.317C224.154 97.2705 223.6 94.2512 223.074 91.2042C220.885 77.3542 220.996 63.4487 223.184 49.7926C224.819 39.1558 227.727 28.7406 231.744 18.6024C235.179 9.93225 239.251 1.53915 243.766 -6.63236L241.993 -8.48828C237.782 -0.759968 233.988 7.13455 230.747 15.2784C221.578 38.4356 218.198 63.2271 222.076 87.8525C223.018 93.6141 224.293 99.2372 225.982 104.833Z" fill="#5C001A"/>
<path opacity="0.3" d="M223.545 113.752C231.495 133.557 243.988 151.286 259.638 165.856C276.84 182.005 297.864 194.082 320.745 200.065C334.484 203.722 349.359 205.301 363.624 203.583C370.937 206.575 378.444 209.096 386.145 210.619L384.676 207.323C377.031 205.772 369.525 203.251 362.35 200.287C348.085 202.087 333.154 200.453 319.415 196.852C296.563 190.813 275.566 178.764 258.309 162.643C243.517 148.793 231.495 132.256 223.545 113.752Z" fill="#5C001A"/>
<path d="M136.043 218.319C136.043 218.319 148.813 200.591 177.15 191.422C205.46 182.254 256.622 203.86 283.657 144.415C298.504 111.757 283.463 96.7158 266.871 89.7908C258.256 86.1898 249.198 84.7494 243.713 84.1954C240.833 83.8907 238.173 85.6081 237.121 88.3227C234.766 94.4167 230.861 99.6521 225.514 104.056C219.864 84.7771 208.811 73.7248 194.767 71.952C188.147 71.0656 180.89 72.2844 173.217 75.6915C168.037 77.9906 163.328 81.2038 159.062 84.9433C148.896 93.8074 127.318 114.416 119.562 135.856C119.451 136.188 119.313 136.521 119.202 136.909C109.922 165.55 136.043 218.319 136.043 218.319Z" fill="url(#paint45_linear_470_1005)"/>
<path opacity="0.2" d="M136.043 218.319C136.043 218.319 148.813 200.591 177.15 191.422C205.46 182.254 256.622 203.86 283.657 144.415C298.504 111.757 283.463 96.716 266.871 89.791C270.472 98.4888 273.629 116.355 251.054 133.917C219.587 158.376 196.817 150.371 170.059 165.745C152.386 175.91 146.985 181.589 145.323 184.276C147.4 179.041 154.879 163.916 178.064 143.834C206.955 118.765 220.667 113.059 225.542 104.057C219.891 84.7773 208.839 73.725 194.795 71.9522C202.773 78.8495 212.052 91.6469 195.958 106.605C176.181 125.053 142.331 137.269 131.279 158.072C124.991 155.108 121.362 146.604 119.229 136.881C109.922 165.551 136.043 218.319 136.043 218.319Z" fill="#5C001A"/>
<path d="M259.641 94.057C262.106 98.0458 249.613 110.345 242.771 116.272C218.922 136.909 189.67 144.194 188.479 141.618C187.482 139.457 202.468 132.338 224.434 112.616C230.805 106.882 234.489 99.5139 244.876 95.2204C250.195 93.0321 258.006 91.4255 259.641 94.057Z" fill="#74A04B"/>
<path d="M187.177 76.495C184.684 73.8081 167.039 83.42 165.155 84.7773C148.867 96.633 129.893 118.682 132.469 122.062C135.1 125.524 160.778 113.281 177.786 92.9211C181.997 87.9905 189.005 78.4894 187.177 76.495Z" fill="#74A04B"/>
<path opacity="0.3" d="M225.515 104.056C225.515 104.056 183.992 125.025 170.946 139.429C157.899 153.833 145.295 184.247 145.295 184.247C151.86 164.054 185.931 134.941 225.515 104.056Z" fill="#5C001A"/>
<path d="M313.378 1343.77C313.378 1343.77 368.308 1344.35 474.87 1288.57C575.615 1235.74 643.148 1244.88 650.128 1245.99C648.438 1245.63 643.535 1244.66 636.444 1243.3C636.195 1243.25 636.029 1243.25 635.779 1243.22C605.392 1237.68 536.004 1227.49 495.866 1240.04C446.727 1255.46 382.075 1303.91 374.097 1309.87C374.9 1309.09 375.787 1308.32 376.701 1307.46C379.914 1304.58 385.98 1299.37 396.922 1290.28C415.398 1274.99 504.232 1228.96 518.026 1221.89C518.719 1221.5 519.218 1221.23 519.522 1221.09C519.633 1221.06 519.716 1220.98 519.827 1220.95C519.827 1220.95 477.917 1226.35 439.026 1244C412.046 1256.18 381.354 1284.85 365.122 1301.14C364.679 1301.61 364.291 1302.03 363.876 1302.44C363.072 1303.28 362.324 1304.02 361.604 1304.77C361.3 1305.16 360.939 1305.49 360.579 1305.82C359.915 1306.54 359.277 1307.15 358.723 1307.79C357.006 1309.59 355.732 1310.98 354.845 1311.92C354.402 1312.39 354.042 1312.75 353.904 1312.89C355.372 1310.64 364.208 1297.74 386.95 1268.21C412.074 1235.58 573.981 1141.29 573.981 1141.29C573.981 1141.29 457.336 1171.15 406.561 1219.4C355.787 1267.65 313.378 1343.77 313.378 1343.77Z" fill="url(#paint46_linear_470_1005)"/>
<path opacity="0.3" d="M349.916 1330.37C360.719 1318.9 396.369 1282.58 420.717 1261.97C450.883 1236.41 519.801 1220.89 519.801 1220.89C519.69 1220.92 519.607 1221.01 519.496 1221.03C518.997 1221.31 518.499 1221.56 518 1221.84C504.233 1228.9 415.371 1274.94 396.895 1290.23C385.926 1299.29 379.86 1304.49 376.674 1307.4C375.954 1308.07 362.104 1321.72 355.622 1328.07C383.96 1316.65 426.728 1298.07 484.289 1269.51C550.88 1236.46 609.327 1239.32 635.753 1243.17C636.002 1243.22 636.168 1243.22 636.418 1243.25C643.758 1244.36 648.523 1245.49 650.102 1245.94C643.121 1244.83 575.588 1235.69 474.843 1288.51C368.309 1344.3 313.352 1343.72 313.352 1343.72C313.352 1343.72 325.457 1340.06 349.916 1330.37Z" fill="#5C001A"/>
<path opacity="0.3" d="M353.792 1312.94C353.792 1312.94 353.848 1312.91 353.875 1312.86C355.343 1310.61 364.18 1297.71 386.921 1268.18C412.045 1235.55 573.952 1141.26 573.952 1141.26C573.952 1141.26 453.734 1197.29 410.688 1230.31C368.418 1262.8 354.235 1311.47 353.792 1312.94Z" fill="#5C001A"/>
<path d="M313.377 1343.77C313.377 1343.77 304.208 1329.7 307.338 1263.44C310.469 1197.21 336.451 1169.59 336.451 1169.59C336.451 1169.59 328.39 1236.99 319.443 1263.11C310.496 1289.2 313.377 1343.77 313.377 1343.77Z" fill="url(#paint47_linear_470_1005)"/>
</g>
<defs>
<linearGradient id="paint0_linear_470_1005" x1="501.868" y1="740.784" x2="315.064" y2="705.795" gradientUnits="userSpaceOnUse">
<stop stop-color="#3C747A"/>
<stop offset="0.3252" stop-color="#3E7875"/>
<stop offset="0.7295" stop-color="#428565"/>
<stop offset="1" stop-color="#469157"/>
</linearGradient>
<linearGradient id="paint1_linear_470_1005" x1="698.789" y1="870.829" x2="297.575" y2="988.4" gradientUnits="userSpaceOnUse">
<stop stop-color="#3C747A"/>
<stop offset="0.3252" stop-color="#3E7875"/>
<stop offset="0.7295" stop-color="#428565"/>
<stop offset="1" stop-color="#469157"/>
</linearGradient>
<linearGradient id="paint2_linear_470_1005" x1="174.861" y1="1117.35" x2="222.31" y2="1274.88" gradientUnits="userSpaceOnUse">
<stop stop-color="#469157"/>
<stop offset="0.2705" stop-color="#428565"/>
<stop offset="0.6748" stop-color="#3E7875"/>
<stop offset="1" stop-color="#3C747A"/>
</linearGradient>
<linearGradient id="paint3_linear_470_1005" x1="264.711" y1="1149.21" x2="295.887" y2="1252.72" gradientUnits="userSpaceOnUse">
<stop stop-color="#469157"/>
<stop offset="0.2705" stop-color="#428565"/>
<stop offset="0.6748" stop-color="#3E7875"/>
<stop offset="1" stop-color="#3C747A"/>
</linearGradient>
<linearGradient id="paint4_linear_470_1005" x1="313.297" y1="506.794" x2="413.739" y2="436.348" gradientUnits="userSpaceOnUse">
<stop stop-color="#266B22"/>
<stop offset="0.3695" stop-color="#45871B"/>
<stop offset="0.8928" stop-color="#6CAB12"/>
</linearGradient>
<linearGradient id="paint5_linear_470_1005" x1="364.505" y1="462.66" x2="326.485" y2="506.451" gradientUnits="userSpaceOnUse">
<stop stop-color="#8B7370"/>
<stop offset="1" stop-color="#A1817C"/>
</linearGradient>
<linearGradient id="paint6_linear_470_1005" x1="362.114" y1="477.746" x2="329.593" y2="515.203" gradientUnits="userSpaceOnUse">
<stop stop-color="#8B7370"/>
<stop offset="1" stop-color="#A1817C"/>
</linearGradient>
<linearGradient id="paint7_linear_470_1005" x1="364.095" y1="486.591" x2="337.004" y2="517.794" gradientUnits="userSpaceOnUse">
<stop stop-color="#8B7370"/>
<stop offset="1" stop-color="#A1817C"/>
</linearGradient>
<linearGradient id="paint8_linear_470_1005" x1="371.635" y1="492.771" x2="342.346" y2="526.506" gradientUnits="userSpaceOnUse">
<stop stop-color="#8B7370"/>
<stop offset="1" stop-color="#A1817C"/>
</linearGradient>
<linearGradient id="paint9_linear_470_1005" x1="368.956" y1="526.861" x2="356.249" y2="541.496" gradientUnits="userSpaceOnUse">
<stop stop-color="#8B7370"/>
<stop offset="1" stop-color="#A1817C"/>
</linearGradient>
<linearGradient id="paint10_linear_470_1005" x1="341.555" y1="530.89" x2="337.47" y2="535.595" gradientUnits="userSpaceOnUse">
<stop stop-color="#8B7370"/>
<stop offset="1" stop-color="#A1817C"/>
</linearGradient>
<linearGradient id="paint11_linear_470_1005" x1="370.824" y1="523.244" x2="354.195" y2="542.397" gradientUnits="userSpaceOnUse">
<stop stop-color="#8B7370"/>
<stop offset="1" stop-color="#A1817C"/>
</linearGradient>
<linearGradient id="paint12_linear_470_1005" x1="509.001" y1="194.051" x2="465.456" y2="207.167" gradientUnits="userSpaceOnUse">
<stop stop-color="#266B22"/>
<stop offset="0.2149" stop-color="#2B7021"/>
<stop offset="0.4827" stop-color="#3B7E1D"/>
<stop offset="0.7773" stop-color="#549517"/>
<stop offset="1" stop-color="#6CAB12"/>
</linearGradient>
<linearGradient id="paint13_linear_470_1005" x1="539.73" y1="196.452" x2="475.342" y2="215.845" gradientUnits="userSpaceOnUse">
<stop stop-color="#266B22"/>
<stop offset="0.2149" stop-color="#2B7021"/>
<stop offset="0.4827" stop-color="#3B7E1D"/>
<stop offset="0.7773" stop-color="#549517"/>
<stop offset="1" stop-color="#6CAB12"/>
</linearGradient>
<linearGradient id="paint14_linear_470_1005" x1="110.133" y1="249.196" x2="58.5133" y2="161.46" gradientUnits="userSpaceOnUse">
<stop stop-color="#266B22"/>
<stop offset="0.2149" stop-color="#2B7021"/>
<stop offset="0.4827" stop-color="#3B7E1D"/>
<stop offset="0.7773" stop-color="#549517"/>
<stop offset="1" stop-color="#6CAB12"/>
</linearGradient>
<linearGradient id="paint15_linear_470_1005" x1="460.474" y1="126.714" x2="359.169" y2="356.972" gradientUnits="userSpaceOnUse">
<stop stop-color="#266B22"/>
<stop offset="0.2149" stop-color="#2B7021"/>
<stop offset="0.4827" stop-color="#3B7E1D"/>
<stop offset="0.7773" stop-color="#549517"/>
<stop offset="1" stop-color="#6CAB12"/>
</linearGradient>
<linearGradient id="paint16_linear_470_1005" x1="295.64" y1="741.593" x2="233.582" y2="535.56" gradientUnits="userSpaceOnUse">
<stop stop-color="#266B22"/>
<stop offset="0.2149" stop-color="#2B7021"/>
<stop offset="0.4827" stop-color="#3B7E1D"/>
<stop offset="0.7773" stop-color="#549517"/>
<stop offset="1" stop-color="#6CAB12"/>
</linearGradient>
<linearGradient id="paint17_linear_470_1005" x1="85.0533" y1="1409.07" x2="-379.418" y2="-132.997" gradientUnits="userSpaceOnUse">
<stop offset="0.0405" stop-color="#711227"/>
<stop offset="0.2361" stop-color="#862122"/>
<stop offset="0.4665" stop-color="#982D1D"/>
<stop offset="0.7128" stop-color="#A3351B"/>
<stop offset="1" stop-color="#A6371A"/>
</linearGradient>
<linearGradient id="paint18_linear_470_1005" x1="85.0533" y1="1409.07" x2="-379.418" y2="-132.997" gradientUnits="userSpaceOnUse">
<stop offset="0.0405" stop-color="#3E472B"/>
<stop offset="0.2361" stop-color="#525D35"/>
<stop offset="0.4665" stop-color="#6B7942"/>
<stop offset="0.7128" stop-color="#64733F"/>
<stop offset="1" stop-color="#687742"/>
</linearGradient>
<linearGradient id="paint19_linear_470_1005" x1="672.228" y1="925.911" x2="-307.947" y2="1221.14" gradientUnits="userSpaceOnUse">
<stop stop-color="#414D30"/>
<stop offset="1" stop-color="#3F4D30"/>
</linearGradient>
<linearGradient id="paint20_linear_470_1005" x1="667.942" y1="911.296" x2="-208.019" y2="1175.14" gradientUnits="userSpaceOnUse">
<stop stop-color="#414D30"/>
<stop offset="1" stop-color="#3F4D30"/>
</linearGradient>
<linearGradient id="paint21_linear_470_1005" x1="559.469" y1="619.957" x2="422.898" y2="624.886" gradientUnits="userSpaceOnUse">
<stop stop-color="#45512F"/>
<stop offset="1" stop-color="#3E4A29"/>
</linearGradient>
<linearGradient id="paint22_linear_470_1005" x1="547.621" y1="551.43" x2="477.406" y2="553.182" gradientUnits="userSpaceOnUse">
<stop stop-color="#45512F"/>
<stop offset="1" stop-color="#3E4A29"/>
</linearGradient>
<linearGradient id="paint23_linear_470_1005" x1="488.263" y1="1257.9" x2="161.326" y2="1349.35" gradientUnits="userSpaceOnUse">
<stop stop-color="#45512F"/>
<stop offset="1" stop-color="#3E4A29"/>
</linearGradient>
<linearGradient id="paint24_linear_470_1005" x1="316.439" y1="1236.33" x2="-84.6642" y2="1436.53" gradientUnits="userSpaceOnUse">
<stop stop-color="#B8C272"/>
<stop offset="1" stop-color="#778648"/>
</linearGradient>
<linearGradient id="paint25_linear_470_1005" x1="478.825" y1="845.37" x2="477.543" y2="845.756" gradientUnits="userSpaceOnUse">
<stop stop-color="#8B7370"/>
<stop offset="1" stop-color="#A1817C"/>
</linearGradient>
<linearGradient id="paint26_linear_470_1005" x1="460.467" y1="155.927" x2="-937.506" y2="576.998" gradientUnits="userSpaceOnUse">
<stop stop-color="#45512F"/>
<stop offset="1" stop-color="#3E4A29"/>
</linearGradient>
<linearGradient id="paint27_linear_470_1005" x1="486.228" y1="201.979" x2="248.733" y2="217.926" gradientUnits="userSpaceOnUse">
<stop stop-color="#45512F"/>
<stop offset="1" stop-color="#3E4A29"/>
</linearGradient>
<linearGradient id="paint28_linear_470_1005" x1="329.926" y1="-80.5345" x2="-233.569" y2="330.196" gradientUnits="userSpaceOnUse">
<stop stop-color="#45512F"/>
<stop offset="1" stop-color="#3E4A29"/>
</linearGradient>
<linearGradient id="paint29_linear_470_1005" x1="565.801" y1="829.745" x2="387.414" y2="840.844" gradientUnits="userSpaceOnUse">
<stop stop-color="#45512F"/>
<stop offset="1" stop-color="#3E4A29"/>
</linearGradient>
<linearGradient id="paint30_linear_470_1005" x1="527.937" y1="395.034" x2="489.046" y2="395.578" gradientUnits="userSpaceOnUse">
<stop stop-color="#B8C272"/>
<stop offset="1" stop-color="#778648"/>
</linearGradient>
<linearGradient id="paint31_linear_470_1005" x1="468.709" y1="79.0339" x2="280.691" y2="92.9302" gradientUnits="userSpaceOnUse">
<stop stop-color="#B8C272"/>
<stop offset="1" stop-color="#778648"/>
</linearGradient>
<linearGradient id="paint32_linear_470_1005" x1="543.47" y1="969.054" x2="451.489" y2="663.674" gradientUnits="userSpaceOnUse">
<stop stop-color="#266B22"/>
<stop offset="0.2149" stop-color="#2B7021"/>
<stop offset="0.4827" stop-color="#3B7E1D"/>
<stop offset="0.7773" stop-color="#549517"/>
<stop offset="1" stop-color="#6CAB12"/>
</linearGradient>
<linearGradient id="paint33_linear_470_1005" x1="394.569" y1="376.102" x2="347.187" y2="356.84" gradientUnits="userSpaceOnUse">
<stop stop-color="#266B22"/>
<stop offset="0.2149" stop-color="#2B7021"/>
<stop offset="0.4827" stop-color="#3B7E1D"/>
<stop offset="0.7773" stop-color="#549517"/>
<stop offset="1" stop-color="#6CAB12"/>
</linearGradient>
<linearGradient id="paint34_linear_470_1005" x1="360.644" y1="426.191" x2="286.287" y2="395.963" gradientUnits="userSpaceOnUse">
<stop stop-color="#266B22"/>
<stop offset="0.2149" stop-color="#2B7021"/>
<stop offset="0.4827" stop-color="#3B7E1D"/>
<stop offset="0.7773" stop-color="#549517"/>
<stop offset="1" stop-color="#6CAB12"/>
</linearGradient>
<linearGradient id="paint35_linear_470_1005" x1="619.32" y1="196.116" x2="532.985" y2="24.4447" gradientUnits="userSpaceOnUse">
<stop stop-color="#266B22"/>
<stop offset="0.2149" stop-color="#2B7021"/>
<stop offset="0.4827" stop-color="#3B7E1D"/>
<stop offset="0.7773" stop-color="#549517"/>
<stop offset="1" stop-color="#6CAB12"/>
</linearGradient>
<linearGradient id="paint36_linear_470_1005" x1="650.535" y1="797.179" x2="476.6" y2="849.568" gradientUnits="userSpaceOnUse">
<stop stop-color="#266B22"/>
<stop offset="0.2149" stop-color="#2B7021"/>
<stop offset="0.4827" stop-color="#3B7E1D"/>
<stop offset="0.7773" stop-color="#549517"/>
<stop offset="1" stop-color="#6CAB12"/>
</linearGradient>
<linearGradient id="paint37_linear_470_1005" x1="432.389" y1="975.979" x2="406.737" y2="983.705" gradientUnits="userSpaceOnUse">
<stop stop-color="#266B22"/>
<stop offset="0.2149" stop-color="#2B7021"/>
<stop offset="0.4827" stop-color="#3B7E1D"/>
<stop offset="0.7773" stop-color="#549517"/>
<stop offset="1" stop-color="#6CAB12"/>
</linearGradient>
<linearGradient id="paint38_linear_470_1005" x1="598.862" y1="1278.55" x2="503.981" y2="963.544" gradientUnits="userSpaceOnUse">
<stop stop-color="#266B22"/>
<stop offset="0.2149" stop-color="#2B7021"/>
<stop offset="0.4827" stop-color="#3B7E1D"/>
<stop offset="0.7773" stop-color="#549517"/>
<stop offset="1" stop-color="#6CAB12"/>
</linearGradient>
<linearGradient id="paint39_linear_470_1005" x1="627.039" y1="495.015" x2="463.33" y2="544.324" gradientUnits="userSpaceOnUse">
<stop stop-color="#266B22"/>
<stop offset="0.2149" stop-color="#2B7021"/>
<stop offset="0.4827" stop-color="#3B7E1D"/>
<stop offset="0.7773" stop-color="#549517"/>
<stop offset="1" stop-color="#6CAB12"/>
</linearGradient>
<linearGradient id="paint40_linear_470_1005" x1="727.406" y1="566.414" x2="639.862" y2="275.763" gradientUnits="userSpaceOnUse">
<stop stop-color="#266B22"/>
<stop offset="0.2149" stop-color="#2B7021"/>
<stop offset="0.4827" stop-color="#3B7E1D"/>
<stop offset="0.7773" stop-color="#549517"/>
<stop offset="1" stop-color="#6CAB12"/>
</linearGradient>
<linearGradient id="paint41_linear_470_1005" x1="703.263" y1="831.558" x2="617.928" y2="548.244" gradientUnits="userSpaceOnUse">
<stop stop-color="#266B22"/>
<stop offset="0.2149" stop-color="#2B7021"/>
<stop offset="0.4827" stop-color="#3B7E1D"/>
<stop offset="0.7773" stop-color="#549517"/>
<stop offset="1" stop-color="#6CAB12"/>
</linearGradient>
<linearGradient id="paint42_linear_470_1005" x1="322.798" y1="408.992" x2="276.043" y2="253.762" gradientUnits="userSpaceOnUse">
<stop stop-color="#266B22"/>
<stop offset="0.2149" stop-color="#2B7021"/>
<stop offset="0.4827" stop-color="#3B7E1D"/>
<stop offset="0.7773" stop-color="#549517"/>
<stop offset="1" stop-color="#6CAB12"/>
</linearGradient>
<linearGradient id="paint43_linear_470_1005" x1="480.426" y1="456.74" x2="385.837" y2="142.701" gradientUnits="userSpaceOnUse">
<stop stop-color="#266B22"/>
<stop offset="0.2149" stop-color="#2B7021"/>
<stop offset="0.4827" stop-color="#3B7E1D"/>
<stop offset="0.7773" stop-color="#549517"/>
<stop offset="1" stop-color="#6CAB12"/>
</linearGradient>
<linearGradient id="paint44_linear_470_1005" x1="324.675" y1="229.114" x2="249.971" y2="-18.9063" gradientUnits="userSpaceOnUse">
<stop stop-color="#266B22"/>
<stop offset="0.2149" stop-color="#2B7021"/>
<stop offset="0.4827" stop-color="#3B7E1D"/>
<stop offset="0.7773" stop-color="#549517"/>
<stop offset="1" stop-color="#6CAB12"/>
</linearGradient>
<linearGradient id="paint45_linear_470_1005" x1="202.387" y1="219.183" x2="204.288" y2="71.8557" gradientUnits="userSpaceOnUse">
<stop stop-color="#266B22"/>
<stop offset="0.2149" stop-color="#2B7021"/>
<stop offset="0.4827" stop-color="#3B7E1D"/>
<stop offset="0.7773" stop-color="#549517"/>
<stop offset="1" stop-color="#6CAB12"/>
</linearGradient>
<linearGradient id="paint46_linear_470_1005" x1="482.898" y1="1298.69" x2="446.915" y2="1179.23" gradientUnits="userSpaceOnUse">
<stop stop-color="#266B22"/>
<stop offset="0.2149" stop-color="#2B7021"/>
<stop offset="0.4827" stop-color="#3B7E1D"/>
<stop offset="0.7773" stop-color="#549517"/>
<stop offset="1" stop-color="#6CAB12"/>
</linearGradient>
<linearGradient id="paint47_linear_470_1005" x1="347.811" y1="1333.39" x2="301.634" y2="1180.08" gradientUnits="userSpaceOnUse">
<stop stop-color="#266B22"/>
<stop offset="0.2149" stop-color="#2B7021"/>
<stop offset="0.4827" stop-color="#3B7E1D"/>
<stop offset="0.7773" stop-color="#549517"/>
<stop offset="1" stop-color="#6CAB12"/>
</linearGradient>
</defs>
</svg>
